<svg xmlns="http://www.w3.org/2000/svg" width="60" height="60" viewBox="-19 21 60 60"><path fill="#FFF" d="M7 60.6h-.8c-1.8 0-3.2-1.4-3.2-3.2V51c0-1.8 1.4-3.2 3.2-3.2H7c1.8 0 3.2 1.4 3.2 3.2v6.4c0 1.8-1.4 3.2-3.2 3.2zm-.8-11.2c-.9 0-1.6.7-1.6 1.6v6.4c0 .9.7 1.6 1.6 1.6H7c.9 0 1.6-.7 1.6-1.6V51c0-.9-.7-1.6-1.6-1.6h-.8zM15.8 60.6h-4V47.8h4c1.8 0 3.2 1.4 3.2 3.2v6.4c0 1.8-1.4 3.2-3.2 3.2zM13.4 59h2.4c.9 0 1.6-.7 1.6-1.6V51c0-.9-.7-1.6-1.6-1.6h-2.4V59zM27.8 60.6h-5.6c-.9 0-1.6-.7-1.6-1.6v-9.6c0-.9.7-1.6 1.6-1.6h5.6v1.6h-5.6V59h5.6v1.6z"/><path fill="#FFF" d="M21.4 53.4h4.8V55h-4.8zM-1 60.6h-2.4c-1.3 0-2.4-1.1-2.4-2.4v-8c0-1.3 1.1-2.4 2.4-2.4H-1c1.3 0 2.4 1.1 2.4 2.4v.8H-.2v-.8c0-.4-.4-.8-.8-.8h-2.4c-.4 0-.8.4-.8.8v8c0 .4.4.8.8.8H-1c.4 0 .8-.4.8-.8v-.8h1.6v.8c0 1.3-1.1 2.4-2.4 2.4z"/><path fill="#FFF" d="M36.6 76.6h-51.2V25.4h51.2v51.2zM-13 75h48V27h-48v48z"/><path fill="#FFF" d="M-13.8 31.8h49.6v1.6h-49.6zM-11.4 28.6h1.6v1.6h-1.6zM-8.2 28.6h1.6v1.6h-1.6zM-5 28.6h1.6v1.6H-5z"/><path fill="#FFF" d="M-1.8 26.2h1.6v6.4h-1.6zM1.4 28.6h32v1.6h-32zM33.4 73.4h-44.8V35h44.8v38.4zm-43.2-1.6h41.6V36.6H-9.8v35.2z"/><path fill="#FFF" d="M7 43h1.6v1.6H7zM10.2 43h1.6v1.6h-1.6z"/><g><path fill="#FFF" d="M13.4 43H15v1.6h-1.6z"/></g><g><path fill="#FFF" d="M7 63.8h1.6v1.6H7z"/></g><g><path fill="#FFF" d="M10.2 63.8h1.6v1.6h-1.6z"/></g><g><path fill="#FFF" d="M13.4 63.8H15v1.6h-1.6z"/></g></svg>