<svg xmlns="http://www.w3.org/2000/svg" xmlns:xlink="http://www.w3.org/1999/xlink" width="164" height="82" viewBox="0 0 164 82"><path fill="#232323" d="M8.3 70.1l1-.2 4.1 8.9 4.1-8.9 1 .2L13.4 81 8.3 70.1zM28.2 69.7l4.4 8.6 4.4-8.6 1.4 10.7-1 .2-1-7.7-3.9 7.5-3.7-7.4-1 7.5-1-.2 1.4-10.6z"/><path fill="#929292" d="M65.4 70h4.2l.1.5h-3.8v4.6h3.2v.5h-3.2v4.9l-.5.2V70zM88.9 69.9l5.2 10.6-.5.2-2.5-5.1h-4.5l-2.4 5.1-.5-.2 5.2-10.6zM87 75.1h4l-2-4.2-2 4.2zM106.5 70h.5c2.1 0 4.2.4 4.2 3 0 1.9-1.5 3-3.3 3.1l3.8 4.2-.4.3-4.3-4.8v4.7l-.5.2V70zm.5 5.7c1.1 0 3.7-.1 3.7-2.8 0-1.8-1.7-2.4-3.3-2.4h-.4v5.2zM136.6 69.9l1.5 10.6-.5.2-1.2-9.1-4.1 9.1-4.1-9.1-1.2 9.1-.5-.2 1.5-10.6 4.3 9.6 4.3-9.6zM155.6 71.2c-.9-.8-1.4-.9-2-.9-1.6 0-2.3 1.3-2.3 2.4 0 1 .5 1.8 1.8 2.2l.9.3c1 .3 2.1.8 2.1 2.7 0 1.5-1 3-2.9 3-1.4 0-2.2-1-2.6-1.5l.4-.4c.4.4 1.1 1.4 2.3 1.4 1.7 0 2.4-1.5 2.4-2.5 0-1.3-.9-1.9-1.9-2.2l-.6-.2c-1-.3-2.2-.9-2.2-2.7 0-1.7 1.2-2.9 2.8-2.9 1.3 0 2 .7 2.4 1l-.6.3z"/><path fill="#6CAF1F" d="M106.3 1h24.6l-24.5 49.2H81.7z"/><g><defs><path id="a" d="M7.9 1h49.2v49.2H7.9z"/></defs><clipPath id="b"><use xlink:href="#a" overflow="visible"/></clipPath><path clip-path="url(#b)" fill="#111" d="M32.5 1H7.9l24.6 49.2h24.6z"/></g><g><defs><path id="c" d="M44.8 1h36.9v49.2H44.8z"/></defs><clipPath id="d"><use xlink:href="#c" overflow="visible"/></clipPath><path clip-path="url(#d)" fill="#1C4523" d="M57.1 50.2L81.7 1H57.1L44.8 25.6z"/></g><path fill="#459030" d="M81.7 1H57.1l24.6 49.2h24.6z"/><path fill="#99D829" d="M131 1h-24.7l24.6 49.2h24.7z"/></svg>