<svg xmlns="http://www.w3.org/2000/svg" width="60" height="60" viewBox="-19 21 60 60"><path fill="#FFF" d="M11 52.6c-6.2 0-12.8-1.3-12.8-4s6.6-4 12.8-4 12.8 1.3 12.8 4-6.6 4-12.8 4zm0-6.4c-7.4 0-11.2 1.7-11.2 2.4S3.6 51 11 51s11.2-1.7 11.2-2.4-3.8-2.4-11.2-2.4z"/><path fill="#FFF" d="M26.2 59h-.8v-1.6h.8c4.9 0 8.8-3.9 8.8-8.8 0-4.6-3.1-8-7.2-8H27v-.8c0-3.1-1.7-6.4-6.4-6.4h-1.3l-.2-.4c-2.1-3.7-6-6-10.5-6-6.6 0-12 5.4-12 12v.8h-.8c-4.9 0-8.8 3.9-8.8 8.8s3.9 8.8 8.8 8.8h.8V59h-.8c-5.7 0-10.4-4.7-10.4-10.4 0-5.5 4.2-10 9.6-10.4.4-7.1 6.3-12.8 13.6-12.8 4.9 0 9.2 2.4 11.7 6.4h.3c4.6 0 7.7 2.8 8 7.2 4.6.4 8 4.4 8 9.6 0 5.7-4.7 10.4-10.4 10.4z"/><path fill="#FFF" d="M1.4 39.8H-.2c0-5.1 4.1-9.6 8.8-9.6v1.6c-3.4 0-7.2 3.4-7.2 8zM11 60.6c-6.2 0-12.8-1.3-12.8-4v-4.8h1.6v4.8c0 .7 3.8 2.4 11.2 2.4s11.2-1.7 11.2-2.4v-4.8h1.6v4.8c0 2.7-6.6 4-12.8 4z"/><path fill="#FFF" d="M11 68.6c-6.2 0-12.8-1.3-12.8-4v-4.8h1.6v4.8c0 .7 3.8 2.4 11.2 2.4s11.2-1.7 11.2-2.4v-4.8h1.6v4.8c0 2.7-6.6 4-12.8 4z"/><path fill="#FFF" d="M11 76.6c-6.2 0-12.8-1.3-12.8-4v-4.8h1.6v4.8c0 .7 3.8 2.4 11.2 2.4s11.2-1.7 11.2-2.4v-4.8h1.6v4.8c0 2.7-6.6 4-12.8 4zM10.2 55h1.6v1.6h-1.6zM7 55h1.6v1.6H7zM13.4 55H15v1.6h-1.6zM10.2 63h1.6v1.6h-1.6zM7 63h1.6v1.6H7zM13.4 63H15v1.6h-1.6z"/><path fill="#FFF" d="M10.2 71h1.6v1.6h-1.6zM7 71h1.6v1.6H7z"/><g><path fill="#FFF" d="M13.4 71H15v1.6h-1.6z"/></g></svg>