<svg xmlns="http://www.w3.org/2000/svg" width="164" height="82" viewBox="0 0 164 82"><path fill="#6CAF1F" d="M101.6.9H125l-23.4 46.8H78.2z"/><path fill="#1C4523" d="M53.9.9h23.4L53.9 47.7H30.5z"/><path d="M30.5.9H7.1l23.4 46.8h23.4z"/><path fill="#459030" d="M78.2.9H54.8l23.4 46.8h23.4z"/><path fill="#99D829" d="M125 .9h-23.4L125 47.7h23.5z"/><g><path fill="#231F20" d="M14.6 64.6l1.5.4-7.6 16-7.4-16.1 1.5-.4 5.8 12.9 6.2-12.8zM39 64.6l3.2 16.1-1.4.2-2.2-11.6L33.7 81l-4.9-11.8-2.2 11.6-1.4-.2 3.2-16.1 5.3 12.8L39 64.6z"/><path fill="#909295" d="M72.7 64.9l.3 1.4h-5.5V72h4.3v1.4h-4.3v7.3l-1.5.1V64.9h6.7zM85.9 74.5L82.7 81l-1.5-.4 8-16.1 8 16.1-1.4.4-3.2-6.5h-6.7zm3.3-6.7L86.6 73h5.2l-2.6-5.2zM107.6 80.8V64.9h3.2c2.6 0 4.6 1.9 4.6 4.6 0 2.4-1.4 4.1-3.7 4.5l4.8 6-1.4.8-5.9-7.7h-.2v7.5l-1.4.2zm1.4-7.9h2c1.9 0 2.8-1.4 2.8-3.3 0-1.5-1.1-3.2-2.8-3.2h-2v6.5zM139.6 64.6l3.2 16.1-1.4.2-2.2-11.6-4.9 11.7-4.9-11.8-2.2 11.6-1.4-.2 3.2-16.1 5.3 12.8 5.3-12.7zM154.2 77.4c1 1.5 2.1 2.2 3.9 2.2 1.9 0 3.3-1.1 3.3-3.1 0-4.4-8.1-2-8.1-7.5 0-2.9 2.2-4.4 4.9-4.4 1.6 0 3.1.7 4.1 1.9l-.9 1.1c-1-.9-1.9-1.5-3.3-1.5-1.8 0-3.4.9-3.4 2.9 0 3.9 8.1 1.9 8.1 7.4 0 2.9-2.2 4.7-4.9 4.7-2.1 0-3.9-.9-5-2.7l1.3-1z"/></g></svg>