<?xml version="1.0" encoding="utf-8"?>
<!-- Generator: Adobe Illustrator 18.1.1, SVG Export Plug-In . SVG Version: 6.00 Build 0)  -->
<svg version="1.1" id="Layer_1" xmlns="http://www.w3.org/2000/svg" xmlns:xlink="http://www.w3.org/1999/xlink" x="0px" y="0px"
	 width="164px" height="82px" viewBox="0 0 164 82" enable-background="new 0 0 164 82" xml:space="preserve">
<g>
	<g id="Shape_2_">
		<polygon fill="#6CB11F" points="99,1 122.5,1 99.1,47.8 75.6,47.8 		"/>
		<polygon fill="#1C4523" points="51.3,1 74.7,1 51.3,47.8 27.9,47.8 		"/>
		<polygon points="27.9,1 4.4,1 27.8,47.8 51.3,47.8 		"/>
		<polygon fill="#459230" points="75.6,1 52.2,1 75.6,47.8 99,47.8 		"/>
		<polygon fill="#9BDA29" points="122.5,1 99.1,1 122.5,47.8 145.9,47.8 		"/>
	</g>
	<g>
		<path fill="#231F20" d="M14.5,64.6l1.5,0.4L8.3,81h0L1,64.9l1.5-0.4l5.8,12.9L14.5,64.6z"/>
		<path fill="#231F20" d="M38.9,64.6L38.9,64.6l3.2,16.1l-1.4,0.2l-2.2-11.6h0L33.6,81h0l-5-11.8h0l-2.2,11.6L25,80.6l3.2-16.1h0
			l5.3,12.8L38.9,64.6z"/>
		<path fill="#929497" d="M72.6,64.9l0.3,1.4h-5.6V72h4.3v1.4h-4.3v7.3l-1.4,0.2V64.9H72.6z"/>
		<path fill="#929497" d="M85.8,74.5L82.6,81l-1.5-0.4l8-16.1h0l8,16.1L95.8,81l-3.2-6.5H85.8z M89.1,67.8L86.5,73h5.3L89.1,67.8z"
			/>
		<path fill="#929497" d="M107.5,80.8V64.9h3.2c2.6,0,4.6,1.9,4.6,4.6c0,2.4-1.4,4.1-3.7,4.5l4.8,6l-1.4,0.8l-5.9-7.7h-0.1v7.5
			L107.5,80.8z M108.9,72.9h2c1.9,0,2.8-1.4,2.8-3.3c0-1.5-1.1-3.2-2.8-3.2h-2V72.9z"/>
		<path fill="#929497" d="M139.6,64.6L139.6,64.6l3.2,16.1l-1.4,0.2l-2.2-11.6h0L134.3,81h0l-5-11.8h0l-2.2,11.6l-1.4-0.2l3.2-16.1
			h0l5.3,12.8L139.6,64.6z"/>
		<path fill="#929497" d="M154.2,77.4c1,1.5,2.1,2.2,3.9,2.2c1.9,0,3.3-1.1,3.3-3.1c0-4.4-8.1-2-8.1-7.5c0-2.9,2.2-4.4,4.9-4.4
			c1.6,0,3.1,0.7,4.2,1.9l-0.9,1.1c-1-0.9-1.9-1.5-3.3-1.5c-1.8,0-3.4,0.9-3.4,2.9c0,3.9,8.1,1.9,8.1,7.4c0,2.9-2.2,4.7-4.9,4.7
			c-2.1,0-3.9-0.9-5-2.7L154.2,77.4z"/>
	</g>
</g>
</svg>
