<svg xmlns="http://www.w3.org/2000/svg" width="60" height="60" viewBox="-19 21 60 60"><path fill="#459030" d="M29.1 51.9c-3 0-5.2-2.8-5.2-6.5 0-2.6.6-5.6 5.2-5.6s5.2 3 5.2 5.6c0 3.7-2.2 6.5-5.2 6.5zm0-10.4c-2.6 0-3.5.9-3.5 3.9 0 2.3 1.2 4.7 3.5 4.7 2.2 0 3.5-2.4 3.5-4.7 0-3-.9-3.9-3.5-3.9z"/><path fill="#459030" d="M22.72 53.433l-.875-1.458 4.287-2.573.875 1.458zM36 58.8h-5.2V57H36c.3 0 .9-.7.9-1.7v-1.2l-5.6-3.2.9-1.5 6.5 3.7v2.2c-.1 1.9-1.3 3.5-2.7 3.5zM-7.1 51.9c-3 0-5.2-2.8-5.2-6.5 0-2.6.6-5.6 5.2-5.6s5.2 3 5.2 5.6c-.1 3.7-2.3 6.5-5.2 6.5zm0-10.4c-2.6 0-3.5.9-3.5 3.9 0 2.3 1.2 4.7 3.5 4.7 2.2 0 3.5-2.4 3.5-4.7-.1-3-.9-3.9-3.5-3.9z"/><path fill="#459030" d="M-.7 53.44l-4.288-2.573.875-1.457 4.287 2.572zM-8.9 58.8H-14c-1.4 0-2.6-1.6-2.6-3.5v-2.2l6.5-3.7.9 1.5-5.6 3.2v1.2c-.1 1.1.5 1.7.8 1.7h5.2l-.1 1.8z"/><g><path fill="#459030" d="M14.6 59L11 57.1 7.4 59 3 54.6 5.4 51l5.6.9 5.6-.9 2.4 3.6-4.4 4.4zM11 55.2l3.3 1.6 2.5-2.5-1-1.5-4.8.8-4.8-.8-1 1.5 2.5 2.5 3.3-1.6z"/></g><g><path fill="#459030" d="M11 50.1c-.1 0-2.8 0-4.7-1l-.1-.1c-.1-.1-2.9-2-3.8-8.4V37h1.7v3.4c.7 5.1 2.8 6.9 3 7.1 1.5.7 3.8.7 3.9.7 0 0 2.3 0 3.9-.7.3-.2 2.3-2 3-7.1V37h1.7v3.6c-.9 6.4-3.7 8.3-3.8 8.4l-.1.1c-1.9 1-4.6 1-4.7 1z"/><path fill="#459030" d="M19.6 37.2h-1.7c0-4.8-2.1-6.9-6.9-6.9s-6.9 2.1-6.9 6.9H2.4c0-5.7 2.9-8.6 8.6-8.6s8.6 2.9 8.6 8.6z"/><path fill="#459030" d="M15.4 39.9l-8.7-3.5L3.6 38l-.8-1.6 3.8-1.9 8.7 3.5 3.1-1.6.8 1.6z"/></g><g><path fill="#459030" d="M-7.1 73.4h-1.7v-7.8c0-6.9 3.8-8.4 7.9-9.9 1.5-.6 3.1-1.2 4.6-2.1l.9 1.5c-1.7 1-3.4 1.6-4.9 2.2-4.1 1.6-6.8 2.6-6.8 8.3v7.8zM30.9 73.4h-1.7v-7.8c0-5.7-2.7-6.8-6.8-8.3-1.5-.6-3.2-1.2-4.9-2.2l.9-1.5c1.6.9 3.1 1.5 4.6 2.1 4.1 1.5 7.9 3 7.9 9.9v7.8zM14.5 48.4h1.7v3.5h-1.7zM5.8 48.4h1.7v3.5H5.8zM10.1 63.1h1.7v1.7h-1.7zM10.1 59.6h1.7v1.7h-1.7zM-2 66.5h1.7v6.9H-2zM22.2 66.5h1.7v6.9h-1.7z"/></g></svg>