<?xml version="1.0" encoding="utf-8"?>
<!-- Generator: Adobe Illustrator 18.1.1, SVG Export Plug-In . SVG Version: 6.00 Build 0)  -->
<svg version="1.0" id="Layer_1" xmlns="http://www.w3.org/2000/svg" xmlns:xlink="http://www.w3.org/1999/xlink" x="0px" y="0px"
	 width="2560px" height="4200px" viewBox="0 0 2560 4200" enable-background="new 0 0 2560 4200" xml:space="preserve">
<path fill="#222222" d="M10946.6,1629c-53.8,53.8-107.5,107.5-161.3,161.3c-233,233-471,471-660.5,750.1c-2.6,5.1-15.4,20.5-28.2,41
	c-23,33.3-56.3,76.8-81.9,115.2c-41,56.3-58.9,84.5-51.2,110.1c2.6,5.1,7.7,15.4,10.2,20.5c17.9,33.3,53.8,112.6,53.8,112.6l2.6,5.1
	c2.6,2.6,7.7,10.2,15.4,17.9c17.9,17.9,48.6,38.4,89.6,43.5c46.1,2.6,89.6-15.4,130.6-58.9l5.1-7.7c30.7-46.1,58.9-92.2,87-135.7
	c61.4-99.8,128-204.8,202.2-297c41-51.2,89.6-97.3,138.2-145.9c17.9-17.9,35.8-35.8,53.8-53.8c143.4-143.4,289.3-291.8,430.1-435.2
	l30.7-33.3c5.1-5.1,12.8-5.1,15.4,0l46.1,61.4c5.1,5.1,10.2,15.4,10.2,20.5l87,238.1c2.6,5.1,10.2,10.2,15.4,10.2h20.5
	c128-5.1,250.9-61.4,345.6-158.7c89.6-92.2,143.4-212.5,151-337.9V1652c0-7.7-5.1-12.8-10.2-15.4l-192-74.2
	c-5.1-2.6-15.4-7.7-20.5-12.8l-476.2-355.8c-5.1-5.1-12.8-2.6-17.9,2.6l-243.2,248.3c-5.1,5.1-5.1,12.8,0,17.9l58.9,79.4
	c5.1,5.1,2.6,12.8,0,17.9c-12.8,12.8-23,25.6-35.8,35.8L10946.6,1629z M10938.9,1982.2l-99.8-97.3c-5.1-5.1-5.1-12.8,0-17.9
	s7.7-7.7,12.8-12.8c10.2-10.2,20.5-20.5,30.7-30.7c5.1-5.1,12.8-5.1,17.9,0l99.8,97.3c5.1,5.1,5.1,12.8,0,17.9
	c-12.8,15.4-28.2,28.2-41,43.5C10951.7,1987.4,10944,1987.4,10938.9,1982.2z M10045.4,2768.2
	C10048,2773.3,10048,2773.3,10045.4,2768.2C10042.9,2765.6,10045.4,2765.6,10045.4,2768.2z M10191.4,2898.7
	c-12.8,10.2-30.7,20.5-46.1,20.5c-12.8,0-23-7.7-30.7-12.8c-5.1-5.1-10.2-12.8-12.8-20.5c-17.9-38.4-30.7-64-41-81.9
	c-2.6-5.1-2.6-15.4,2.6-20.5c28.2-41,81.9-115.2,105-145.9c15.4-20.5,28.2-38.4,30.7-43.5c158.7-235.5,358.4-445.4,558.1-645.1
	c5.1-5.1,12.8-5.1,17.9,0l99.8,99.8c5.1,5.1,5.1,12.8,0,17.9c-61.4,61.4-120.3,122.9-181.8,184.3c-17.9,17.9-35.8,35.8-53.8,53.8
	c-48.6,48.6-99.8,97.3-145.9,153.6c-79.4,97.3-145.9,202.2-209.9,307.2c-25.6,41-51.2,81.9-76.8,120.3
	C10204.2,2885.9,10196.5,2893.6,10191.4,2898.7z M11077.1,1856.8c-5.1,5.1-12.8,5.1-17.9,0l-99.8-97.3c-5.1-5.1-5.1-12.8,0-17.9
	c17.9-17.9,33.3-33.3,51.2-51.2l25.6-28.2c7.7-10.2,17.9-17.9,25.6-25.6c5.1-5.1,12.8-5.1,15.4,0l84.5,112.6
	c5.1,5.1,2.6,12.8-2.6,17.9l-41,41C11107.8,1826.1,11092.5,1841.4,11077.1,1856.8z M11817,1718.6c-15.4,87-56.3,169-120.3,235.5
	c-66.6,69.1-151,112.6-240.6,125.4c-7.7,0-12.8-2.6-15.4-10.2l-23-66.6c-2.6-5.1,2.6-10.2,7.7-12.8c76.8-5.1,153.6-41,212.5-99.8
	c56.3-56.3,89.6-133.1,94.7-209.9c0-7.7,5.1-10.2,12.8-7.7l66.6,25.6C11814.4,1705.8,11817,1710.9,11817,1718.6z"/>
<path fill="#222222" d="M1267.2,994.1l-15.4,15.4c-28.2,30.7-678.4,732.2-542.7,1305.6c53.8,227.8,227.8,404.5,514.6,519.7
	c10.2,5.1,17.9,15.4,17.9,25.6v330.2c0,10.2,7.7,20.5,20.5,20.5h38.4c10.2,0,20.5-7.7,20.5-20.5v-330.2c0-10.2,7.7-23,17.9-25.6
	c286.7-115.2,460.8-289.3,514.6-519.7c135.7-573.4-514.6-1274.9-542.7-1305.6l-15.4-15.4C1285.1,986.4,1274.9,986.4,1267.2,994.1z
	 M1336.3,2750.2c-10.2,5.1-17.9,0-17.9-12.8v-233c0-10.2,5.1-25.6,12.8-33.3l212.5-243.2c7.7-7.7,5.1-20.5-2.6-28.2l-28.2-25.6
	c-7.7-7.7-20.5-5.1-28.2,2.6l-153.6,174.1c-7.7,7.7-12.8,5.1-12.8-5.1V2100c0-10.2,5.1-25.6,12.8-33.3l212.5-243.2
	c7.7-7.7,5.1-20.5-2.6-28.2l-28.2-25.6c-7.7-7.7-20.5-5.1-28.2,2.6l-153.6,174.1c-7.7,7.7-12.8,5.1-12.8-5.1v-294.4
	c0-10.2-7.7-20.5-20.5-20.5h-38.4c-10.2,0-20.5,7.7-20.5,20.5v297c0,10.2-5.1,12.8-12.8,5.1l-153.6-174.1
	c-7.7-7.7-20.5-7.7-28.2-2.6l-28.2,25.6c-7.7,7.7-7.7,20.5-2.6,28.2l212.5,243.2c7.7,7.7,12.8,23,12.8,33.3v245.8
	c0,10.2-5.1,12.8-12.8,5.1l-151-176.6c-7.7-7.7-20.5-7.7-28.2-2.6l-28.2,25.6c-7.7,7.7-7.7,20.5-2.6,28.2l212.5,243.2
	c7.7,7.7,12.8,23,12.8,33.3v233c0,10.2-7.7,15.4-17.9,12.8c-245.8-105-391.7-256-437.8-453.1
	c-110.1-450.6,340.5-1021.4,481.3-1185.3c7.7-7.7,17.9-7.7,25.6,0c140.8,166.4,591.4,734.7,483.8,1187.8
	C1728,2494.2,1582.1,2645.3,1336.3,2750.2z"/>
<path fill="#222222" d="M-5022.7,2517.3c-53.8,10.2-94.7,56.3-94.7,112.6c0,43.5,23,79.4,56.3,99.8c7.7,5.1,10.2,15.4,7.7,23
	c-7.7,15.4-10.2,30.7-10.2,48.6c0,64,51.2,115.2,115.2,115.2c0,0,5.1,0,10.2,0c5.1,0,7.7,7.7,5.1,17.9s-2.6,17.9-2.6,28.2
	c0,64,51.2,115.2,115.2,115.2h263.7c64,0,115.2-51.2,115.2-115.2c0-10.2,0-20.5-2.6-28.2c-2.6-10.2-2.6-17.9,2.6-17.9h7.7
	c64,0,115.2-51.2,115.2-115.2c0-17.9-5.1-35.8-10.2-48.6c-5.1-7.7-2.6-17.9,7.7-23c33.3-20.5,56.3-56.3,56.3-99.8
	c0-56.3-38.4-102.4-89.6-112.6c-10.2-2.6-10.2-5.1-2.6-10.2c238.1-120.3,404.5-368.6,404.5-652.8c0-401.9-327.7-732.2-732.2-732.2
	c-401.9,0-729.6,327.7-729.6,732.2c0,284.2,163.8,532.5,401.9,652.8C-5012.5,2512.2-5012.5,2517.3-5022.7,2517.3z M-4707.8,2517.3
	c-7.7,0-15.4-7.7-15.4-17.9v-353.3c0-10.2,7.7-17.9,17.9-17.9h23c10.2,0,17.9,7.7,17.9,17.9v350.7c0,10.2-7.7,17.9-15.4,17.9
	c-5.1,0-10.2,0-15.4,0C-4697.6,2517.3-4702.7,2517.3-4707.8,2517.3z M-4515.8,2965.3c0,25.6-20.5,46.1-46.1,46.1h-263.7
	c-25.6,0-46.1-20.5-46.1-46.1c0-25.6,20.5-46.1,46.1-46.1h263.7C-4536.3,2919.2-4515.8,2939.7-4515.8,2965.3z M-4441.6,2850.1
	h-120.3h-263.7H-4951c-25.6,0-46.1-20.5-46.1-46.1c0-25.6,20.5-46.1,46.1-46.1h506.9c25.6,0,46.1,20.5,46.1,46.1
	C-4398.1,2829.6-4418.6,2850.1-4441.6,2850.1z M-4390.4,2586.4c25.6,0,46.1,20.5,46.1,46.1c0,25.6-20.5,46.1-46.1,46.1h-614.4
	c-25.6,0-46.1-20.5-46.1-46.1c0-25.6,20.5-46.1,46.1-46.1H-4390.4z M-4032,1856.8c0,325.1-235.5,596.5-545.3,650.2
	c-10.2,2.6-17.9-5.1-17.9-15.4v-345.6c0-10.2,7.7-17.9,17.9-17.9h66.6c84.5,0,153.6-69.1,153.6-153.6c0-84.5-69.1-153.6-153.6-153.6
	c-84.5,0-153.6,69.1-153.6,153.6v66.6c0,10.2-7.7,17.9-17.9,17.9h-23c-10.2,0-17.9-7.7-17.9-17.9v-66.6
	c0-84.5-69.1-153.6-153.6-153.6s-153.6,69.1-153.6,153.6c0,84.5,69.1,153.6,153.6,153.6h66.6c10.2,0,17.9,7.7,17.9,17.9v345.6
	c0,10.2-7.7,15.4-17.9,15.4c-309.8-56.3-545.3-325.1-545.3-650.2c0-363.5,297-660.5,660.5-660.5
	C-4329,1193.8-4032,1490.7-4032,1856.8z M-4595.2,2041.1v-66.6c0-46.1,38.4-84.5,84.5-84.5s84.5,38.4,84.5,84.5
	s-38.4,84.5-84.5,84.5h-66.6C-4587.5,2059-4595.2,2051.4-4595.2,2041.1z M-4810.2,2059h-66.6c-46.1,0-84.5-38.4-84.5-84.5
	s38.4-84.5,84.5-84.5s84.5,38.4,84.5,84.5v66.6C-4792.3,2051.4-4800,2059-4810.2,2059z"/>
<g>
	<path fill="#222222" d="M1973.8,26806.6H1047c-74.2,0-135.7,61.4-135.7,135.7v1602.6c0,74.2,61.4,135.7,135.7,135.7h924.2
		c74.2,0,135.7-61.4,135.7-135.7v-1602.6C2106.9,26865.4,2048,26806.6,1973.8,26806.6z M2040.3,28542.2c0,38.4-30.7,69.1-69.1,69.1
		H1047c-38.4,0-69.1-30.7-69.1-69.1v-1602.6c0-38.4,30.7-69.1,69.1-69.1h924.2c38.4,0,69.1,30.7,69.1,69.1V28542.2z"/>
	<path fill="#222222" d="M1049.6,28355.4h921.6c10.2,0,17.9-7.7,17.9-17.9v-1297.9c0-10.2-7.7-17.9-17.9-17.9h-921.6
		c-10.2,0-15.4,7.7-15.4,17.9v1297.9C1034.2,28347.7,1041.9,28355.4,1049.6,28355.4z M1116.2,27090.7h788.5
		c10.2,0,17.9,7.7,17.9,15.4v1164.8c0,10.2-7.7,15.4-17.9,15.4h-788.5c-10.2,0-17.9-7.7-17.9-15.4v-1164.8
		C1100.8,27098.4,1108.5,27090.7,1116.2,27090.7z"/>
	<path fill="#222222" d="M1607.7,26919.2h-174.1c-10.2,0-17.9,7.7-17.9,17.9v33.3c0,10.2,7.7,17.9,17.9,17.9h176.6
		c10.2,0,17.9-7.7,17.9-17.9v-33.3C1625.6,26926.9,1617.9,26919.2,1607.7,26919.2z"/>
	<path fill="#222222" d="M1500.2,28393.8c-53.8,0-94.7,43.5-94.7,94.7s43.5,94.7,94.7,94.7c53.8,0,94.7-43.5,94.7-94.7
		S1553.9,28393.8,1500.2,28393.8z M1500.2,28519.2c-15.4,0-28.2-12.8-28.2-28.2s12.8-28.2,28.2-28.2c15.4,0,28.2,12.8,28.2,28.2
		C1530.9,28503.8,1518.1,28519.2,1500.2,28519.2z"/>
</g>
</svg>
