<svg version="1" xmlns="http://www.w3.org/2000/svg" width="2560" height="2560" viewBox="0 821 2560 2560"><path fill="#222" d="M1292.8 1626.5l-161.3 161.3c-233 233-471 473.6-660.5 752.6-2.6 5.1-15.4 20.5-28.2 41-23 33.3-56.3 76.8-81.9 115.2-41 56.3-58.9 84.5-51.2 110.1 2.6 5.1 7.7 15.4 10.2 20.5 17.9 33.3 53.8 112.6 53.8 112.6l2.6 5.1c2.6 2.6 7.7 10.2 15.4 17.9 17.9 17.9 48.6 38.4 89.6 43.5 46.1 2.6 89.6-15.4 130.6-58.9l5.1-7.7c30.7-46.1 58.9-92.2 87-135.7 61.4-99.8 128-204.8 202.2-297 41-51.2 89.6-97.3 138.2-145.9l53.8-53.8c143.4-143.4 289.3-291.8 430.1-435.2l33.3-30.7c5.1-5.1 12.8-5.1 15.4 0l46.1 61.4c5.1 5.1 10.2 15.4 10.2 20.5l87 238.1c2.6 5.1 10.2 10.2 15.4 10.2h20.5c128-5.1 250.9-61.4 345.6-158.7 89.6-92.2 143.4-212.5 151-337.9v-20.5c0-7.7-5.1-12.8-10.2-15.4l-192-74.2c-5.1-2.6-15.4-7.7-20.5-12.8l-471-355.8c-5.1-5.1-12.8-2.6-17.9 2.6L1298 1447.2c-5.1 5.1-5.1 12.8 0 17.9l58.9 79.4c5.1 5.1 2.6 12.8 0 17.9-12.8 12.8-23 25.6-35.8 35.8l-28.3 28.3zm-10.2 353.2l-99.8-97.3c-5.1-5.1-5.1-12.8 0-17.9l12.8-12.8 30.7-30.7c5.1-5.1 12.8-5.1 17.9 0l99.8 97.3c5.1 5.1 5.1 12.8 0 17.9-12.8 15.4-28.2 28.2-41 43.5-7.6 5.2-15.3 5.2-20.4 0zm-890.9 786c0 5.1 0 5.1 0 0-2.6-2.6-2.6-2.6 0 0zm145.9 130.5c-12.8 10.2-30.7 20.5-46.1 20.5-12.8 0-23-7.7-30.7-12.8-5.1-5.1-10.2-12.8-12.8-20.5-17.9-38.4-30.7-64-41-81.9-2.6-5.1-2.6-15.4 2.6-20.5 28.2-41 81.9-115.2 105-145.9 15.4-20.5 28.2-38.4 30.7-43.5 158.7-235.5 358.4-445.4 558.1-645.1 5.1-5.1 12.8-5.1 17.9 0l99.8 99.8c5.1 5.1 5.1 12.8 0 17.9-61.4 61.4-120.3 122.9-181.8 184.3l-53.8 53.8c-48.6 48.6-99.8 97.3-145.9 153.6-79.4 97.3-145.9 202.2-209.9 307.2-25.6 41-51.2 81.9-76.8 120.3-5.1 0-10.2 7.7-15.3 12.8zm883.2-1041.9c-5.1 5.1-12.8 5.1-17.9 0l-97.3-97.3c-5.1-5.1-5.1-12.8 0-17.9l51.2-51.2 25.6-28.2c7.7-10.2 17.9-17.9 25.6-25.6 5.1-5.1 12.8-5.1 15.4 0l84.5 112.6c5.1 5.1 2.6 12.8-2.6 17.9l-41 41c-12.8 18-28.1 33.3-43.5 48.7zm739.8-138.2c-15.4 87-56.3 169-120.3 235.5-66.6 69.1-151 112.6-240.6 125.4-7.7 0-12.8-2.6-15.4-10.2l-23-66.6c-2.6-5.1 2.6-10.2 7.7-12.8 76.8-5.1 153.6-41 212.5-99.8 56.3-56.3 89.6-133.1 94.7-209.9 0-7.7 5.1-10.2 12.8-7.7l66.6 25.6c2.5 7.7 7.6 12.8 5 20.5z"/></svg>