<svg version="1" xmlns="http://www.w3.org/2000/svg" width="2560" height="2560" viewBox="0 821 2560 2560"><g fill="#222"><path d="M1743.4 1166H816.6c-74.2 0-135.7 61.4-135.7 135.7v1602.6c0 74.2 61.4 135.7 135.7 135.7h924.2c74.2 0 135.7-61.4 135.7-135.7V1301.7c0-74.2-58.9-135.7-133.1-135.7zm66.5 1738.3c0 38.4-30.7 69.1-69.1 69.1H816.6c-38.4 0-69.1-30.7-69.1-69.1V1301.7c0-38.4 30.7-69.1 69.1-69.1h924.2c38.4 0 69.1 30.7 69.1 69.1v1602.6z"/><path d="M819.2 2717.4h921.6c10.2 0 17.9-7.7 17.9-17.9V1404.1c0-10.2-7.7-17.9-17.9-17.9H819.2c-10.2 0-15.4 7.7-15.4 17.9V2702c0 7.7 7.7 15.4 15.4 15.4zm66.6-1264.6h788.5c10.2 0 17.9 7.7 17.9 15.4V2633c0 10.2-7.7 15.4-17.9 15.4H885.8c-10.2 0-17.9-7.7-17.9-15.4V1470.7c2.5-10.3 10.2-17.9 17.9-17.9zM1377.3 1281.2h-174.1c-10.2 0-17.9 7.7-17.9 17.9v33.3c0 10.2 7.7 17.9 17.9 17.9h176.6c10.2 0 17.9-7.7 17.9-17.9v-33.3c-2.5-10.2-10.2-17.9-20.4-17.9zM1269.8 2755.8c-53.8 0-94.7 43.5-94.7 94.7s43.5 94.7 94.7 94.7c53.8 0 94.7-43.5 94.7-94.7s-41-94.7-94.7-94.7zm0 122.9c-15.4 0-28.2-12.8-28.2-28.2s12.8-28.2 28.2-28.2 28.2 12.8 28.2 28.2c2.5 15.4-10.3 28.2-28.2 28.2z"/></g></svg>