<svg version="1" xmlns="http://www.w3.org/2000/svg" width="440" height="140" viewBox="-1059 2031 440 140"><g fill="#222"><path d="M-1000.4 2099l-12 14.3h-38.2v-32.5l-6.4-5.5 6.4-5.5v-33h37.1l12.4 14.4v15.3l-7.1 8.1 7.8 8.4v16zm-11.9-37.2v-5.8l-6.6-8h-20.6v21.7h20.6l6.6-7.9zm.7 32.4v-6.3l-6.2-6.8h-21.7v21.1h21.7l6.2-8zM-939.7 2110.3h-42.8v-29.9l-5.9-5.2 5.9-5.1v-30.4h42.8v10.3h-32.4v20.1h25v10.3h-25v19.6h32.4v10.3zM-878.8 2097.8l-12.8 11.3h-23.1l-12.8-11.3v-12.3h9.9v7.6l7.1 6.1h14.7l7.1-6.1v-7.6l-7.1-6h-17.4l-12.8-11.4v-15.6l12.8-11.3h21.6l12.8 11.3v11.3h-9.8v-7.1l-6.6-5.7h-14.2l-6.6 5.7v7.1l6.6 5.8h17.9l12.8 11.3-.1 16.9zM-817.9 2067.8l-10.6 12.3h-22.2v27.7h-9.5V2080l-5.4-4.7 5.4-4.8v-28.1h31.7l10.6 12.2v13.2zm-9.5-4.1v-5l-5.6-6.8h-17.6v18.7h17.6l5.6-6.9zM-747.1 2075.3l-5.7 4.9v17.5l-12.7 11.3h-24.1l-12.8-11.3v-17.5l-5.7-4.9 5.7-5v-17.9l12.8-11.3h24.1l12.7 11.3v17.9l5.7 5zm-15.6 17.8v-36l-7.1-6.1h-15.6l-7.1 6.1v36l7.1 6h15.6l7.1-6zM-680.3 2110.3h-11.9l-23-31.1-7.2 9v22.1h-10.3v-29.9l-5.9-5.2 5.9-5.1v-30.4h10.3v34l27.3-34h11.8l-25.6 31.8 28.6 38.8zM-622 2113.2h-46.2v-32.4l-6.4-5.6 6.4-5.5v-32.9h46.2v11.2h-35.1v21.7h27v11.2h-27v21.2h35.1v11.1zM-721.4 2139.3l-9.9 12.2 24.5-.4-5.9 7.4 29-.8-19.4-3.6 5.9-7.3M-953.6 2139.3l9.9 12.2-24.6-.4 6 7.4-29-.8 19.4-3.6-5.9-7.3M-907.3 2159.6l-6.6 5.9h-18.4v-14.9l-2.9-2.6 2.9-2.5v-15.1h18.4l6.6 5.9v23.3zm-5.2-2.4v-18.6l-3.7-3.2h-11v24.9h11l3.7-3.1zM-888 2148l-2.9 2.6v14.9h-5.1v-14.9l-2.9-2.6 2.9-2.5v-15.2h5.1v15.2l2.9 2.5zM-852.8 2159.6l-6.6 5.9h-12.5l-6.6-5.9v-9.1l-2.9-2.5 2.9-2.6v-9.3l6.6-5.9h12.4l6.6 5.9.1 7.3h-5.1v-4.7l-3.6-3.4h-8.1l-3.7 3.2v18.6l3.7 3.2h8.1l3.6-3.4v-3.7h-6.8v-5.1h12l-.1 11.5zM-833.4 2148l-2.9 2.6v14.9h-5.2v-14.9l-2.9-2.6 2.9-2.5v-15.2h5.2v15.2l2.9 2.5zM-801.1 2135.4h-10.2v10l2.9 2.5-2.9 2.5v14.9h-5.1v-14.9l-2.9-2.5 2.9-2.5v-10h-10.4v-5.1h25.6l.1 5.1zM-766 2165.5h-5.4l-3.3-8.8h-14.4l-3.3 8.8h-5.4l5.6-14.9-2.4-2.6 4.3-2.2 5.8-15.5h5.4l13.1 35.2zm-10.6-14l-5.3-14.4-5.3 14.4h10.6zM-734.8 2165.5h-21.3v-14.9l-2.9-2.5 2.9-2.6v-15.1h5.1v30h16.1v5.1h.1z"/></g></svg>