<svg version="1" xmlns="http://www.w3.org/2000/svg" width="2560" height="2560" viewBox="0 821 2560 2560"><path fill="#222" d="M949.8 2556.5c-53.8 10.2-94.7 56.3-94.7 112.6 0 43.5 23 79.4 56.3 99.8 7.7 5.1 10.2 15.4 7.7 23-7.7 15.4-10.2 30.7-10.2 48.6 0 64 51.2 115.2 115.2 115.2h10.2s7.7 7.7 5.1 17.9-2.6 17.9-2.6 28.2c0 64 51.2 115.2 115.2 115.2h263.7c64 0 115.2-51.2 115.2-115.2 0-10.2 0-20.5-2.6-28.2-2.6-10.2-2.6-17.9 2.6-17.9h7.7c64 0 115.2-51.2 115.2-115.2 0-17.9-5.1-35.8-10.2-48.6-5.1-7.7-2.6-17.9 7.7-23 33.3-20.5 56.3-56.3 56.3-99.8 0-56.3-38.4-102.4-89.6-112.6-10.2-2.6-10.2-5.1-2.6-10.2 238.1-120.3 404.5-368.6 404.5-652.8 0-401.9-327.7-732.2-732.2-732.2-401.9 0-729.6 327.7-729.6 732.2 0 284.2 163.8 532.5 401.9 652.8 0 5.1 0 10.2-10.2 10.2zm314.8 0c-7.7 0-15.4-7.7-15.4-17.9v-353.3c0-10.2 7.7-17.9 17.9-17.9h23c10.2 0 17.9 7.7 17.9 17.9V2536c0 10.2-7.7 17.9-15.4 17.9h-15.4c-2.3 2.6-7.4 2.6-12.6 2.6zm192 448c0 25.6-20.5 46.1-46.1 46.1h-261.1c-25.6 0-46.1-20.5-46.1-46.1s20.5-46.1 46.1-46.1h263.7c23.1 0 43.5 20.5 43.5 46.1zm74.3-115.2H1024c-25.6 0-46.1-20.5-46.1-46.1s20.5-46.1 46.1-46.1h506.9c25.6 0 46.1 20.5 46.1 46.1s-20.5 46.1-46.1 46.1zm53.7-263.7c25.6 0 46.1 20.5 46.1 46.1s-20.5 46.1-46.1 46.1H970.2c-25.6 0-46.1-20.5-46.1-46.1s20.5-46.1 46.1-46.1h614.4zm355.9-729.6c0 325.1-235.5 596.5-545.3 650.2-10.2 2.6-17.9-5.1-17.9-15.4v-345.6c0-10.2 7.7-17.9 17.9-17.9h66.6c84.5 0 153.6-69.1 153.6-153.6s-69.1-153.6-153.6-153.6-153.6 69.1-153.6 153.6v66.6c0 10.2-7.7 17.9-17.9 17.9h-23c-10.2 0-17.9-7.7-17.9-17.9v-66.6c0-84.5-69.1-153.6-153.6-153.6s-153.6 69.1-153.6 153.6 69.1 153.6 153.6 153.6h66.6c10.2 0 17.9 7.7 17.9 17.9v345.6c0 10.2-7.7 15.4-17.9 15.4C852.5 2489.9 617 2221.1 617 1896c0-363.5 297-660.5 660.5-660.5 366-2.5 663 294.4 663 660.5zm-560.7 184.3v-66.6c0-46.1 38.4-84.5 84.5-84.5s84.5 38.4 84.5 84.5-38.4 84.5-84.5 84.5h-66.6c-10.2 0-17.9-7.6-17.9-17.9zm-217.6 17.9h-66.6c-46.1 0-84.5-38.4-84.5-84.5s38.4-84.5 84.5-84.5 84.5 38.4 84.5 84.5v66.6c.1 10.3-7.6 17.9-17.9 17.9z"/></svg>