<?xml version="1.0" encoding="utf-8"?>
<!-- Generator: Adobe Illustrator 16.0.4, SVG Export Plug-In . SVG Version: 6.00 Build 0)  -->
<!DOCTYPE svg PUBLIC "-//W3C//DTD SVG 1.1//EN" "http://www.w3.org/Graphics/SVG/1.1/DTD/svg11.dtd">
<svg version="1.1" id="Layer_1" xmlns="http://www.w3.org/2000/svg" xmlns:xlink="http://www.w3.org/1999/xlink" x="0px" y="0px"
	 width="440px" height="140px" viewBox="0 0 440 140" enable-background="new 0 0 440 140" xml:space="preserve">
<g>
	<g>
		<path fill="#FFFFFF" d="M59.388,67.823L47.38,82.124H9.173V49.657l-6.371-5.529l6.371-5.535V5.599h37.059l12.426,14.41v15.346
			l-7.098,8.141l7.828,8.355V67.823z M47.485,30.587v-5.816l-6.574-7.998H20.345v21.713h20.566L47.485,30.587z M48.216,62.954V56.62
			l-6.16-6.756H20.345v21.092h21.711L48.216,62.954z"/>
		<path fill="#FFFFFF" d="M120.063,79.141H77.302V49.219l-5.887-5.213l5.887-5.115V8.484h42.762v10.33H87.63v20.076h25v10.328h-25
			v19.592h32.434V79.141z"/>
		<path fill="#FFFFFF" d="M181.043,66.553l-12.781,11.324h-23.065l-12.781-11.324V54.211h9.93v7.607l7.055,6.129h14.66l7.054-6.129
			v-7.607l-7.054-6.033h-17.445l-12.809-11.416V21.17l12.781-11.324h21.581l12.785,11.324v11.324h-9.84v-7.055l-6.609-5.662h-14.155
			l-6.613,5.662v7.055l6.59,5.752h17.913l12.805,11.322V66.553z"/>
		<path fill="#FFFFFF" d="M241.926,36.589l-10.621,12.315h-22.164v27.664h-9.547V48.816l-5.445-4.729l5.445-4.82V11.154h31.711
			l10.621,12.228V36.589z M232.375,32.542v-5.023l-5.621-6.814h-17.613v18.652h17.613L232.375,32.542z"/>
		<path fill="#FFFFFF" d="M312.664,44.096l-5.66,4.918v17.539l-12.715,11.324h-24.133l-12.805-11.324V49.014l-5.664-4.918
			l5.664-5.014V21.17l12.805-11.324h24.133l12.715,11.324v17.912L312.664,44.096z M297.074,61.914V25.902l-7.078-6.125h-15.641
			l-7.074,6.125v36.012l7.074,6.033h15.641L297.074,61.914z"/>
		<path fill="#FFFFFF" d="M379.516,79.143h-11.867l-22.977-31.08l-7.238,8.977v22.104h-10.328V49.221l-5.887-5.213l5.887-5.115
			V8.486h10.328v33.977L364.75,8.486h11.773l-25.578,31.758L379.516,79.143z"/>
		<path fill="#FFFFFF" d="M437.801,82.024h-46.25V49.663l-6.367-5.639l6.367-5.533V5.603h46.25v11.174h-35.078v21.715h27.039v11.172
			h-27.039v21.189h35.078V82.024z"/>
	</g>
	<polygon fill-rule="evenodd" clip-rule="evenodd" fill="#FFFFFF" points="338.375,108.074 328.48,120.302 353.043,119.943 
		347.109,127.277 376.09,126.454 356.715,122.91 362.648,115.572 338.375,108.074 	"/>
	<polygon fill-rule="evenodd" clip-rule="evenodd" fill="#FFFFFF" points="106.224,108.074 116.11,120.302 91.548,119.943 
		97.481,127.277 68.509,126.454 87.886,122.91 81.952,115.572 	"/>
	<path fill="#FFFFFF" d="M152.468,128.363l-6.59,5.856h-18.371v-14.88l-2.928-2.592l2.928-2.545V99.084h18.371l6.59,5.855V128.363z
		 M147.331,125.964v-18.576l-3.707-3.168h-10.98v24.864h10.98L147.331,125.964z"/>
	<path fill="#FFFFFF" d="M171.844,116.796l-2.928,2.592v14.88h-5.136v-14.88l-2.928-2.592l2.928-2.544V99.084h5.136v15.168
		L171.844,116.796z"/>
	<path fill="#FFFFFF" d="M206.953,128.411l-6.576,5.856h-12.482l-6.576-5.856v-9.071l-2.93-2.544l2.93-2.593v-9.264l6.576-5.855
		h12.387l6.576,5.855l0.096,7.344h-5.135v-4.655l-3.648-3.408h-8.064l-3.652,3.168v18.576l3.652,3.168h8.064l3.648-3.408v-3.744
		h-6.816v-5.136h11.951V128.411z"/>
	<path fill="#FFFFFF" d="M226.426,116.796l-2.928,2.592v14.88h-5.162v-14.88l-2.933-2.592l2.933-2.544V99.084h5.162v15.168
		L226.426,116.796z"/>
	<path fill="#FFFFFF" d="M258.676,104.22h-10.227v10.032l2.93,2.544l-2.93,2.544v14.928h-5.133V119.34l-2.93-2.544l2.93-2.544
		V104.22h-10.273v-5.136h25.633V104.22z"/>
	<path fill="#FFFFFF" d="M293.793,134.268h-5.375l-3.312-8.784h-14.398l-3.312,8.784h-5.375l5.566-14.88l-2.449-2.592l4.273-2.208
		l5.809-15.504h5.375L293.793,134.268z M283.188,120.348l-5.281-14.4l-5.281,14.4H283.188z"/>
	<path fill="#FFFFFF" d="M325.023,134.268h-21.262V119.34l-2.93-2.544l2.93-2.593V99.084h5.137v30.048h16.125V134.268z"/>
</g>
</svg>
