<?xml version="1.0" encoding="utf-8"?>
<!-- Generator: Adobe Illustrator 16.0.4, SVG Export Plug-In . SVG Version: 6.00 Build 0)  -->
<!DOCTYPE svg PUBLIC "-//W3C//DTD SVG 1.1//EN" "http://www.w3.org/Graphics/SVG/1.1/DTD/svg11.dtd">
<svg version="1.1" id="Layer_1" xmlns="http://www.w3.org/2000/svg" xmlns:xlink="http://www.w3.org/1999/xlink" x="0px" y="0px"
	 width="44px" height="30px" viewBox="0 0 44 30" enable-background="new 0 0 44 30" xml:space="preserve">
<g>
	<path fill="#414042" d="M41.854,4.111l-0.102,0.088L27.395,14.945l14.459,10.833c0.076,0.074,0.127,0.144,0.193,0.216
		c0.092-0.336,0.156-0.685,0.156-1.05V4.945c0-0.365-0.064-0.713-0.156-1.049C41.98,3.969,41.93,4.037,41.854,4.111"/>
	<path fill="#414042" d="M22.204,17.369c-1.299,0-2.521-0.42-3.541-1.162L4.121,27.091c0.552,0.543,1.291,0.854,2.082,0.854h32
		c0.791,0,1.529-0.312,2.082-0.854L25.75,16.201C24.729,16.947,23.504,17.369,22.204,17.369"/>
	<path fill="#414042" d="M2.552,4.111C2.477,4.037,2.426,3.969,2.36,3.896C2.268,4.232,2.203,4.58,2.203,4.945v19.999
		c0,0.365,0.065,0.714,0.157,1.05c0.066-0.072,0.117-0.142,0.192-0.216l0.102-0.088l14.357-10.745L2.552,4.111z"/>
	<path fill="#414042" d="M22.204,15.369c1.069,0,2.073-0.404,2.821-1.139l0.103-0.086L40.285,2.799
		c-0.553-0.543-1.291-0.854-2.082-0.854h-32c-0.791,0-1.53,0.311-2.082,0.854L19.38,14.23
		C20.129,14.965,21.132,15.369,22.204,15.369"/>
	<path fill="#414042" d="M6.203,1.945h32c0.791,0,1.529,0.311,2.082,0.854L25.127,14.145l-0.102,0.086
		c-0.748,0.736-1.752,1.139-2.822,1.139c-1.071,0-2.075-0.402-2.824-1.139L4.121,2.799C4.673,2.256,5.412,1.945,6.203,1.945"/>
	<path fill="#414042" d="M2.552,25.777c-0.075,0.074-0.126,0.144-0.193,0.216c-0.091-0.336-0.156-0.685-0.156-1.05V4.945
		c0-0.365,0.065-0.713,0.156-1.049c0.067,0.072,0.118,0.141,0.193,0.215l14.459,10.834L2.653,25.689L2.552,25.777z"/>
	<path fill="#414042" d="M38.203,27.943h-32c-0.791,0-1.53-0.311-2.082-0.854l14.542-10.884c1.02,0.742,2.241,1.162,3.541,1.162
		c1.3,0,2.524-0.423,3.546-1.168l14.535,10.89C39.732,27.634,38.994,27.943,38.203,27.943"/>
	<path fill="#414042" d="M42.203,24.943c0,0.365-0.066,0.714-0.156,1.05c-0.066-0.072-0.119-0.142-0.193-0.216L27.395,14.945
		L41.752,4.199l0.102-0.088c0.074-0.074,0.127-0.143,0.193-0.215c0.09,0.336,0.156,0.684,0.156,1.049V24.943z"/>
</g>
</svg>
