<?xml version="1.0" encoding="utf-8"?>
<!-- Generator: Adobe Illustrator 18.1.1, SVG Export Plug-In . SVG Version: 6.00 Build 0)  -->
<svg version="1.0" id="Layer_1" xmlns="http://www.w3.org/2000/svg" xmlns:xlink="http://www.w3.org/1999/xlink" x="0px" y="0px"
	 width="440px" height="140px" viewBox="-1059 2031 440 140" enable-background="new -1059 2031 440 140" xml:space="preserve">
<g>
	<g>
		<path fill="#222222" d="M-2058.6,4129.8l-12,14.3h-38.2v-32.5l-6.4-5.5l6.4-5.5v-33h37.1l12.4,14.4v15.3l-7.1,8.1l7.8,8.4
			C-2058.6,4113.9-2058.6,4129.8-2058.6,4129.8z M-2070.5,4092.6v-5.8l-6.6-8h-20.6v21.7h20.6L-2070.5,4092.6z M-2069.8,4125v-6.3
			l-6.2-6.8h-21.7v21.1h21.7L-2069.8,4125z"/>
		<path fill="#222222" d="M-1997.9,4141.1h-42.8v-29.9l-5.9-5.2l5.9-5.1v-30.4h42.8v10.3h-32.4v20.1h25v10.3h-25v19.6h32.4V4141.1
			L-1997.9,4141.1z"/>
		<path fill="#222222" d="M-1937,4128.6l-12.8,11.3h-23.1l-12.8-11.3v-12.3h9.9v7.6l7.1,6.1h14.7l7.1-6.1v-7.6l-7.1-6h-17.4
			l-12.8-11.4v-15.6l12.8-11.3h21.6l12.8,11.3v11.3h-9.8v-7.1l-6.6-5.7h-14.2l-6.6,5.7v7.1l6.6,5.8h17.9l12.8,11.3L-1937,4128.6
			L-1937,4128.6z"/>
		<path fill="#222222" d="M-1876.1,4098.6l-10.6,12.3h-22.2v27.7h-9.5v-27.8l-5.4-4.7l5.4-4.8v-28.1h31.7l10.6,12.2V4098.6z
			 M-1885.6,4094.5v-5l-5.6-6.8h-17.6v18.7h17.6L-1885.6,4094.5z"/>
		<path fill="#222222" d="M-1805.3,4106.1l-5.7,4.9v17.5l-12.7,11.3h-24.1l-12.8-11.3V4111l-5.7-4.9l5.7-5v-17.9l12.8-11.3h24.1
			l12.7,11.3v17.9L-1805.3,4106.1z M-1820.9,4123.9v-36l-7.1-6.1h-15.6l-7.1,6.1v36l7.1,6h15.6L-1820.9,4123.9z"/>
		<path fill="#222222" d="M-1738.5,4141.1h-11.9l-23-31.1l-7.2,9v22.1h-10.3v-29.9l-5.9-5.2l5.9-5.1v-30.4h10.3v34l27.3-34h11.8
			l-25.6,31.8L-1738.5,4141.1z"/>
		<path fill="#222222" d="M-1680.2,4144h-46.2v-32.4l-6.4-5.6l6.4-5.5v-32.9h46.2v11.2h-35.1v21.7h27v11.2h-27v21.2h35.1V4144z"/>
	</g>
	<polygon fill="#222222" points="-1779.6,4170.1 -1789.5,4182.3 -1765,4181.9 -1770.9,4189.3 -1741.9,4188.5 -1761.3,4184.9 
		-1755.4,4177.6 	"/>
	<polygon fill="#222222" points="-2011.8,4170.1 -2001.9,4182.3 -2026.5,4181.9 -2020.5,4189.3 -2049.5,4188.5 -2030.1,4184.9 
		-2036,4177.6 	"/>
	<path fill="#222222" d="M-1965.5,4190.4l-6.6,5.9h-18.4v-14.9l-2.9-2.6l2.9-2.5v-15.1h18.4l6.6,5.9V4190.4z M-1970.7,4188v-18.6
		l-3.7-3.2h-11v24.9h11L-1970.7,4188z"/>
	<path fill="#222222" d="M-1946.2,4178.8l-2.9,2.6v14.9h-5.1v-14.9l-2.9-2.6l2.9-2.5v-15.2h5.1v15.2L-1946.2,4178.8z"/>
	<path fill="#222222" d="M-1911,4190.4l-6.6,5.9h-12.5l-6.6-5.9v-9.1l-2.9-2.5l2.9-2.6v-9.3l6.6-5.9h12.4l6.6,5.9l0.1,7.3h-5.1v-4.7
		l-3.6-3.4h-8.1l-3.7,3.2v18.6l3.7,3.2h8.1l3.6-3.4v-3.7h-6.8v-5.1h12L-1911,4190.4L-1911,4190.4z"/>
	<path fill="#222222" d="M-1891.6,4178.8l-2.9,2.6v14.9h-5.2v-14.9l-2.9-2.6l2.9-2.5v-15.2h5.2v15.2L-1891.6,4178.8z"/>
	<path fill="#222222" d="M-1859.3,4166.2h-10.2v10l2.9,2.5l-2.9,2.5v14.9h-5.1v-14.9l-2.9-2.5l2.9-2.5v-10h-10.4v-5.1h25.6
		L-1859.3,4166.2L-1859.3,4166.2z"/>
	<path fill="#222222" d="M-1824.2,4196.3h-5.4l-3.3-8.8h-14.4l-3.3,8.8h-5.4l5.6-14.9l-2.4-2.6l4.3-2.2l5.8-15.5h5.4L-1824.2,4196.3
		z M-1834.8,4182.3l-5.3-14.4l-5.3,14.4H-1834.8z"/>
	<path fill="#222222" d="M-1793,4196.3h-21.3v-14.9l-2.9-2.5l2.9-2.6v-15.1h5.1v30h16.1v5.1H-1793z"/>
</g>
</svg>
