<svg version="1" xmlns="http://www.w3.org/2000/svg" width="2560" height="2560" viewBox="0 821 2560 2560"><path fill="#222" d="M1267.2 999.5l-15.4 15.4c-28.2 30.7-678.4 732.2-542.7 1305.6 53.8 227.8 227.8 404.5 514.6 519.7 10.2 5.1 17.9 15.4 17.9 25.6V3196c0 10.2 7.7 20.5 20.5 20.5h38.4c10.2 0 20.5-7.7 20.5-20.5v-330.2c0-10.2 7.7-23 17.9-25.6 286.7-115.2 460.8-289.3 514.6-519.7 135.7-573.4-514.6-1274.9-542.7-1305.6l-15.4-15.4c-10.3-7.7-20.5-7.7-28.2 0zm69.1 1756.1c-10.2 5.1-17.9 0-17.9-12.8v-233c0-10.2 5.1-25.6 12.8-33.3l212.5-243.2c7.7-7.7 5.1-20.5-2.6-28.2l-28.2-25.6c-7.7-7.7-20.5-5.1-28.2 2.6l-153.6 174.1c-7.7 7.7-12.8 5.1-12.8-5.1v-245.7c0-10.2 5.1-25.6 12.8-33.3l212.5-243.2c7.7-7.7 5.1-20.5-2.6-28.2l-28.2-25.6c-7.7-7.7-20.5-5.1-28.2 2.6L1331 1951.8c-7.7 7.7-12.8 5.1-12.8-5.1v-294.4c0-10.2-7.7-20.5-20.5-20.5h-38.4c-10.2 0-20.5 7.7-20.5 20.5v297c0 10.2-5.1 12.8-12.8 5.1l-153.6-174.1c-7.7-7.7-20.5-7.7-28.2-2.6l-28.2 25.6c-7.7 7.7-7.7 20.5-2.6 28.2l212.5 243.2c7.7 7.7 12.8 23 12.8 33.3v245.8c0 10.2-5.1 12.8-12.8 5.1l-151-176.6c-7.7-7.7-20.5-7.7-28.2-2.6l-28.2 25.6c-7.7 7.7-7.7 20.5-2.6 28.2l212.5 243.2c7.7 7.7 12.8 23 12.8 33.3v233c0 10.2-7.7 15.4-17.9 12.8-245.8-105-391.7-256-437.8-453.1-110.1-450.6 340.5-1021.4 481.3-1185.3 7.7-7.7 17.9-7.7 25.6 0 140.8 166.4 591.4 734.7 483.8 1187.8-48.2 194.4-194.1 345.5-439.9 450.4z"/></svg>