<?xml version="1.0" encoding="utf-8"?>
<!-- Generator: Adobe Illustrator 18.1.1, SVG Export Plug-In . SVG Version: 6.00 Build 0)  -->
<svg version="1.1" id="Layer_1" xmlns="http://www.w3.org/2000/svg" xmlns:xlink="http://www.w3.org/1999/xlink" x="0px" y="0px"
	 viewBox="0 0 100 100" enable-background="new 0 0 100 100" xml:space="preserve">
<path fill="#FFFFFF" d="M50.5,31.6c-2.1,2.1-4.2,4.2-6.3,6.3C35.1,47,25.8,56.4,18.4,67.3c-0.1,0.2-0.6,0.8-1.1,1.6
	c-0.9,1.3-2.2,3-3.2,4.5c-1.6,2.2-2.3,3.3-2,4.3c0.1,0.2,0.3,0.6,0.4,0.8c0.7,1.3,2.1,4.4,2.1,4.4l0.1,0.2c0.1,0.1,0.3,0.4,0.6,0.7
	c0.7,0.7,1.9,1.5,3.5,1.7c1.8,0.1,3.5-0.6,5.1-2.3l0.2-0.3c1.2-1.8,2.3-3.6,3.4-5.3c2.4-3.9,5-8,7.9-11.6c1.6-2,3.5-3.8,5.4-5.7
	c0.7-0.7,1.4-1.4,2.1-2.1c5.6-5.6,11.3-11.4,16.8-17L61,40c0.2-0.2,0.5-0.2,0.6,0l1.8,2.4c0.2,0.2,0.4,0.6,0.4,0.8l3.4,9.3
	c0.1,0.2,0.4,0.4,0.6,0.4l0.8,0c5-0.2,9.8-2.4,13.5-6.2c3.5-3.6,5.6-8.3,5.9-13.2l0-0.8c0-0.3-0.2-0.5-0.4-0.6l-7.5-2.9
	c-0.2-0.1-0.6-0.3-0.8-0.5L60.9,14.8c-0.2-0.2-0.5-0.1-0.7,0.1l-9.5,9.7c-0.2,0.2-0.2,0.5,0,0.7l2.3,3.1c0.2,0.2,0.1,0.5,0,0.7
	c-0.5,0.5-0.9,1-1.4,1.4L50.5,31.6z M50.1,45.4l-3.9-3.8c-0.2-0.2-0.2-0.5,0-0.7c0.2-0.2,0.3-0.3,0.5-0.5c0.4-0.4,0.8-0.8,1.2-1.2
	c0.2-0.2,0.5-0.2,0.7,0l3.9,3.8c0.2,0.2,0.2,0.5,0,0.7c-0.5,0.6-1.1,1.1-1.6,1.7C50.6,45.6,50.3,45.6,50.1,45.4z M15.3,76.1
	C15.3,76.3,15.3,76.3,15.3,76.1C15.2,76,15.2,76,15.3,76.1z M21,81.2c-0.5,0.4-1.2,0.8-1.8,0.8c-0.5,0-0.9-0.3-1.2-0.5
	c-0.2-0.2-0.4-0.5-0.5-0.8c-0.7-1.5-1.2-2.5-1.6-3.2c-0.1-0.2-0.1-0.6,0.1-0.8c1.1-1.6,3.2-4.5,4.1-5.7c0.6-0.8,1.1-1.5,1.2-1.7
	c6.2-9.2,14-17.4,21.8-25.2c0.2-0.2,0.5-0.2,0.7,0l3.9,3.9c0.2,0.2,0.2,0.5,0,0.7c-2.4,2.4-4.7,4.8-7.1,7.2
	c-0.7,0.7-1.4,1.4-2.1,2.1c-1.9,1.9-3.9,3.8-5.7,6c-3.1,3.8-5.7,7.9-8.2,12c-1,1.6-2,3.2-3,4.7C21.4,80.7,21.2,81,21,81.2z
	 M55.5,40.5c-0.2,0.2-0.5,0.2-0.7,0L51,36.7c-0.2-0.2-0.2-0.5,0-0.7c0.7-0.7,1.3-1.3,2-2l1-1.1c0.3-0.4,0.7-0.7,1-1
	c0.2-0.2,0.5-0.2,0.6,0l3.3,4.4c0.2,0.2,0.1,0.5-0.1,0.7l-1.6,1.6C56.7,39.3,56.1,39.9,55.5,40.5z M84.4,35.1
	c-0.6,3.4-2.2,6.6-4.7,9.2c-2.6,2.7-5.9,4.4-9.4,4.9c-0.3,0-0.5-0.1-0.6-0.4l-0.9-2.6c-0.1-0.2,0.1-0.4,0.3-0.5c3-0.2,6-1.6,8.3-3.9
	c2.2-2.2,3.5-5.2,3.7-8.2c0-0.3,0.2-0.4,0.5-0.3l2.6,1C84.3,34.6,84.5,34.8,84.4,35.1z"/>
<path fill="#FFFFFF" d="M58.5,481.2l-0.6,0.6c-1.1,1.2-26.5,28.6-21.2,51c2.1,8.9,8.9,15.8,20.1,20.3c0.4,0.2,0.7,0.6,0.7,1V567
	c0,0.4,0.3,0.8,0.8,0.8h1.5c0.4,0,0.8-0.3,0.8-0.8v-12.9c0-0.4,0.3-0.9,0.7-1c11.2-4.5,18-11.3,20.1-20.3
	c5.3-22.4-20.1-49.8-21.2-51l-0.6-0.6C59.2,480.9,58.8,480.9,58.5,481.2z M61.2,549.8c-0.4,0.2-0.7,0-0.7-0.5v-9.1
	c0-0.4,0.2-1,0.5-1.3l8.3-9.5c0.3-0.3,0.2-0.8-0.1-1.1l-1.1-1c-0.3-0.3-0.8-0.2-1.1,0.1l-6,6.8c-0.3,0.3-0.5,0.2-0.5-0.2v-9.6
	c0-0.4,0.2-1,0.5-1.3l8.3-9.5c0.3-0.3,0.2-0.8-0.1-1.1l-1.1-1c-0.3-0.3-0.8-0.2-1.1,0.1l-6,6.8c-0.3,0.3-0.5,0.2-0.5-0.2v-11.6
	c0-0.4-0.3-0.8-0.8-0.8h-1.5c-0.4,0-0.8,0.3-0.8,0.8v11.6c0,0.4-0.2,0.5-0.5,0.2l-6-6.8c-0.3-0.3-0.8-0.3-1.1-0.1l-1.1,1
	c-0.3,0.3-0.3,0.8-0.1,1.1l8.3,9.5c0.3,0.3,0.5,0.9,0.5,1.3v9.6c0,0.4-0.2,0.5-0.5,0.2l-6-6.8c-0.3-0.3-0.8-0.3-1.1-0.1l-1.1,1
	c-0.3,0.3-0.3,0.8-0.1,1.1l8.3,9.5c0.3,0.3,0.5,0.9,0.5,1.3v9.1c0,0.4-0.3,0.6-0.7,0.5c-9.6-4.1-15.3-10-17.1-17.7
	c-4.2-17.7,13.3-39.9,18.9-46.4c0.3-0.3,0.7-0.3,1,0c5.5,6.5,23.1,28.7,18.9,46.4C76.5,539.7,70.8,545.7,61.2,549.8z"/>
<path fill="#FFFFFF" d="M46.1-454.2c-2.1,0.4-3.7,2.2-3.7,4.4c0,1.7,0.9,3.1,2.2,3.9c0.3,0.2,0.4,0.6,0.3,0.9
	c-0.3,0.6-0.4,1.2-0.4,1.9c0,2.5,2,4.5,4.5,4.5c0,0,0.2,0,0.4,0c0.2,0,0.3,0.3,0.2,0.7c-0.1,0.4-0.1,0.7-0.1,1.1
	c0,2.5,2,4.5,4.5,4.5h10.3c2.5,0,4.5-2,4.5-4.5c0-0.4,0-0.8-0.1-1.1c-0.1-0.4-0.1-0.7,0.1-0.7h0.3c2.5,0,4.5-2,4.5-4.5
	c0-0.7-0.2-1.4-0.4-1.9c-0.2-0.3-0.1-0.7,0.3-0.9c1.3-0.8,2.2-2.2,2.2-3.9c0-2.2-1.5-4-3.5-4.4c-0.4-0.1-0.4-0.2-0.1-0.4
	c9.3-4.7,15.8-14.4,15.8-25.5c0-15.7-12.8-28.6-28.6-28.6c-15.7,0-28.5,12.8-28.5,28.6c0,11.1,6.4,20.8,15.7,25.5
	C46.5-454.4,46.5-454.3,46.1-454.2z M58.4-454.3c-0.3,0-0.6-0.3-0.6-0.7v-13.7c0-0.4,0.3-0.7,0.7-0.7h0.9c0.4,0,0.7,0.3,0.7,0.7
	v13.7c0,0.4-0.3,0.7-0.6,0.7c-0.2,0-0.4,0-0.6,0C58.8-454.3,58.6-454.3,58.4-454.3z M65.9-436.8c0,1-0.8,1.8-1.8,1.8H53.9
	c-1,0-1.8-0.8-1.8-1.8c0-1,0.8-1.8,1.8-1.8h10.3C65.1-438.5,65.9-437.7,65.9-436.8z M68.8-441.3h-4.7H53.9H49c-1,0-1.8-0.8-1.8-1.8
	s0.8-1.8,1.8-1.8h19.8c1,0,1.8,0.8,1.8,1.8S69.8-441.3,68.8-441.3z M70.9-451.5c1,0,1.8,0.8,1.8,1.8c0,1-0.8,1.8-1.8,1.8h-24
	c-1,0-1.8-0.8-1.8-1.8c0-1,0.8-1.8,1.8-1.8H70.9z M84.8-480.1c0,12.7-9.2,23.3-21.3,25.4c-0.4,0.1-0.7-0.2-0.7-0.6v-13.5
	c0-0.4,0.3-0.7,0.7-0.7h2.6c3.3,0,6-2.7,6-6c0-3.3-2.7-6-6-6c-3.3,0-6,2.7-6,6v2.6c0,0.4-0.3,0.7-0.7,0.7h-0.9
	c-0.4,0-0.7-0.3-0.7-0.7v-2.6c0-3.3-2.7-6-6-6c-3.3,0-6,2.7-6,6c0,3.3,2.7,6,6,6h2.6c0.4,0,0.7,0.3,0.7,0.7v13.5
	c0,0.4-0.3,0.6-0.7,0.6c-12.1-2.2-21.3-12.7-21.3-25.4c0-14.2,11.6-25.8,25.8-25.8C73.2-505.9,84.8-494.3,84.8-480.1z M62.9-472.8
	v-2.6c0-1.8,1.5-3.3,3.3-3.3c1.8,0,3.3,1.5,3.3,3.3c0,1.8-1.5,3.3-3.3,3.3h-2.6C63.2-472.1,62.9-472.4,62.9-472.8z M54.4-472.1h-2.6
	c-1.8,0-3.3-1.5-3.3-3.3c0-1.8,1.5-3.3,3.3-3.3c1.8,0,3.3,1.5,3.3,3.3v2.6C55.1-472.4,54.8-472.1,54.4-472.1z"/>
<g>
	<path fill="#FFFFFF" d="M77.1,1015.1H40.9c-2.9,0-5.3,2.4-5.3,5.3v62.6c0,2.9,2.4,5.3,5.3,5.3h36.1c2.9,0,5.3-2.4,5.3-5.3v-62.6
		C82.3,1017.4,80,1015.1,77.1,1015.1z M79.7,1082.9c0,1.5-1.2,2.7-2.7,2.7H40.9c-1.5,0-2.7-1.2-2.7-2.7v-62.6c0-1.5,1.2-2.7,2.7-2.7
		h36.1c1.5,0,2.7,1.2,2.7,2.7V1082.9z"/>
	<path fill="#FFFFFF" d="M41,1075.6h36c0.4,0,0.7-0.3,0.7-0.7v-50.7c0-0.4-0.3-0.7-0.7-0.7H41c-0.4,0-0.6,0.3-0.6,0.7v50.7
		C40.4,1075.3,40.7,1075.6,41,1075.6z M43.6,1026.2h30.8c0.4,0,0.7,0.3,0.7,0.6v45.5c0,0.4-0.3,0.6-0.7,0.6H43.6
		c-0.4,0-0.7-0.3-0.7-0.6v-45.5C43,1026.5,43.3,1026.2,43.6,1026.2z"/>
	<path fill="#FFFFFF" d="M62.8,1019.5H56c-0.4,0-0.7,0.3-0.7,0.7v1.3c0,0.4,0.3,0.7,0.7,0.7h6.9c0.4,0,0.7-0.3,0.7-0.7v-1.3
		C63.5,1019.8,63.2,1019.5,62.8,1019.5z"/>
	<path fill="#FFFFFF" d="M58.6,1077.1c-2.1,0-3.7,1.7-3.7,3.7s1.7,3.7,3.7,3.7c2.1,0,3.7-1.7,3.7-3.7S60.7,1077.1,58.6,1077.1z
		 M58.6,1082c-0.6,0-1.1-0.5-1.1-1.1c0-0.6,0.5-1.1,1.1-1.1c0.6,0,1.1,0.5,1.1,1.1C59.8,1081.4,59.3,1082,58.6,1082z"/>
</g>
</svg>
