<?xml version="1.0" encoding="utf-8"?>
<!-- Generator: Adobe Illustrator 18.1.1, SVG Export Plug-In . SVG Version: 6.00 Build 0)  -->
<svg version="1.1" id="Layer_1" xmlns="http://www.w3.org/2000/svg" xmlns:xlink="http://www.w3.org/1999/xlink" x="0px" y="0px"
	 viewBox="0 0 100 100" enable-background="new 0 0 100 100" xml:space="preserve">
<path fill="#FFFFFF" d="M427.6,31.6c-2.1,2.1-4.2,4.2-6.3,6.3c-9.1,9.1-18.4,18.4-25.8,29.3c-0.1,0.2-0.6,0.8-1.1,1.6
	c-0.9,1.3-2.2,3-3.2,4.5c-1.6,2.2-2.3,3.3-2,4.3c0.1,0.2,0.3,0.6,0.4,0.8c0.7,1.3,2.1,4.4,2.1,4.4l0.1,0.2c0.1,0.1,0.3,0.4,0.6,0.7
	c0.7,0.7,1.9,1.5,3.5,1.7c1.8,0.1,3.5-0.6,5.1-2.3l0.2-0.3c1.2-1.8,2.3-3.6,3.4-5.3c2.4-3.9,5-8,7.9-11.6c1.6-2,3.5-3.8,5.4-5.7
	c0.7-0.7,1.4-1.4,2.1-2.1c5.6-5.6,11.3-11.4,16.8-17l1.2-1.3c0.2-0.2,0.5-0.2,0.6,0l1.8,2.4c0.2,0.2,0.4,0.6,0.4,0.8l3.4,9.3
	c0.1,0.2,0.4,0.4,0.6,0.4l0.8,0c5-0.2,9.8-2.4,13.5-6.2c3.5-3.6,5.6-8.3,5.9-13.2l0-0.8c0-0.3-0.2-0.5-0.4-0.6l-7.5-2.9
	c-0.2-0.1-0.6-0.3-0.8-0.5l-18.6-13.9c-0.2-0.2-0.5-0.1-0.7,0.1l-9.5,9.7c-0.2,0.2-0.2,0.5,0,0.7l2.3,3.1c0.2,0.2,0.1,0.5,0,0.7
	c-0.5,0.5-0.9,1-1.4,1.4L427.6,31.6z M427.3,45.4l-3.9-3.8c-0.2-0.2-0.2-0.5,0-0.7c0.2-0.2,0.3-0.3,0.5-0.5c0.4-0.4,0.8-0.8,1.2-1.2
	c0.2-0.2,0.5-0.2,0.7,0l3.9,3.8c0.2,0.2,0.2,0.5,0,0.7c-0.5,0.6-1.1,1.1-1.6,1.7C427.8,45.6,427.5,45.6,427.3,45.4z M392.4,76.1
	C392.5,76.3,392.5,76.3,392.4,76.1C392.3,76,392.4,76,392.4,76.1z M398.1,81.2c-0.5,0.4-1.2,0.8-1.8,0.8c-0.5,0-0.9-0.3-1.2-0.5
	c-0.2-0.2-0.4-0.5-0.5-0.8c-0.7-1.5-1.2-2.5-1.6-3.2c-0.1-0.2-0.1-0.6,0.1-0.8c1.1-1.6,3.2-4.5,4.1-5.7c0.6-0.8,1.1-1.5,1.2-1.7
	c6.2-9.2,14-17.4,21.8-25.2c0.2-0.2,0.5-0.2,0.7,0l3.9,3.9c0.2,0.2,0.2,0.5,0,0.7c-2.4,2.4-4.7,4.8-7.1,7.2
	c-0.7,0.7-1.4,1.4-2.1,2.1c-1.9,1.9-3.9,3.8-5.7,6c-3.1,3.8-5.7,7.9-8.2,12c-1,1.6-2,3.2-3,4.7C398.6,80.7,398.3,81,398.1,81.2z
	 M432.7,40.5c-0.2,0.2-0.5,0.2-0.7,0l-3.9-3.8c-0.2-0.2-0.2-0.5,0-0.7c0.7-0.7,1.3-1.3,2-2l1-1.1c0.3-0.4,0.7-0.7,1-1
	c0.2-0.2,0.5-0.2,0.6,0l3.3,4.4c0.2,0.2,0.1,0.5-0.1,0.7l-1.6,1.6C433.9,39.3,433.3,39.9,432.7,40.5z M461.6,35.1
	c-0.6,3.4-2.2,6.6-4.7,9.2c-2.6,2.7-5.9,4.4-9.4,4.9c-0.3,0-0.5-0.1-0.6-0.4l-0.9-2.6c-0.1-0.2,0.1-0.4,0.3-0.5c3-0.2,6-1.6,8.3-3.9
	c2.2-2.2,3.5-5.2,3.7-8.2c0-0.3,0.2-0.4,0.5-0.3l2.6,1C461.5,34.6,461.6,34.8,461.6,35.1z"/>
<path fill="#FFFFFF" d="M49.5-142.5l-0.6,0.6c-1.1,1.2-26.5,28.6-21.2,51c2.1,8.9,8.9,15.8,20.1,20.3c0.4,0.2,0.7,0.6,0.7,1v12.9
	c0,0.4,0.3,0.8,0.8,0.8h1.5c0.4,0,0.8-0.3,0.8-0.8v-12.9c0-0.4,0.3-0.9,0.7-1c11.2-4.5,18-11.3,20.1-20.3
	c5.3-22.4-20.1-49.8-21.2-51l-0.6-0.6C50.2-142.8,49.8-142.8,49.5-142.5z M52.2-73.9c-0.4,0.2-0.7,0-0.7-0.5v-9.1
	c0-0.4,0.2-1,0.5-1.3l8.3-9.5c0.3-0.3,0.2-0.8-0.1-1.1l-1.1-1c-0.3-0.3-0.8-0.2-1.1,0.1l-6,6.8c-0.3,0.3-0.5,0.2-0.5-0.2v-9.6
	c0-0.4,0.2-1,0.5-1.3l8.3-9.5c0.3-0.3,0.2-0.8-0.1-1.1l-1.1-1c-0.3-0.3-0.8-0.2-1.1,0.1l-6,6.8c-0.3,0.3-0.5,0.2-0.5-0.2V-117
	c0-0.4-0.3-0.8-0.8-0.8h-1.5c-0.4,0-0.8,0.3-0.8,0.8v11.6c0,0.4-0.2,0.5-0.5,0.2l-6-6.8c-0.3-0.3-0.8-0.3-1.1-0.1l-1.1,1
	c-0.3,0.3-0.3,0.8-0.1,1.1l8.3,9.5c0.3,0.3,0.5,0.9,0.5,1.3v9.6c0,0.4-0.2,0.5-0.5,0.2l-6-6.8c-0.3-0.3-0.8-0.3-1.1-0.1l-1.1,1
	c-0.3,0.3-0.3,0.8-0.1,1.1l8.3,9.5c0.3,0.3,0.5,0.9,0.5,1.3v9.1c0,0.4-0.3,0.6-0.7,0.5c-9.6-4.1-15.3-10-17.1-17.7
	c-4.2-17.7,13.3-39.9,18.9-46.4c0.3-0.3,0.7-0.3,1,0c5.5,6.5,23.1,28.7,18.9,46.4C67.5-83.9,61.8-78,52.2-73.9z"/>
<path fill="#FFFFFF" d="M-196.2,66.3c-2.1,0.4-3.7,2.2-3.7,4.4c0,1.7,0.9,3.1,2.2,3.9c0.3,0.2,0.4,0.6,0.3,0.9
	c-0.3,0.6-0.4,1.2-0.4,1.9c0,2.5,2,4.5,4.5,4.5c0,0,0.2,0,0.4,0c0.2,0,0.3,0.3,0.2,0.7c-0.1,0.4-0.1,0.7-0.1,1.1
	c0,2.5,2,4.5,4.5,4.5h10.3c2.5,0,4.5-2,4.5-4.5c0-0.4,0-0.8-0.1-1.1c-0.1-0.4-0.1-0.7,0.1-0.7h0.3c2.5,0,4.5-2,4.5-4.5
	c0-0.7-0.2-1.4-0.4-1.9c-0.2-0.3-0.1-0.7,0.3-0.9c1.3-0.8,2.2-2.2,2.2-3.9c0-2.2-1.5-4-3.5-4.4c-0.4-0.1-0.4-0.2-0.1-0.4
	c9.3-4.7,15.8-14.4,15.8-25.5c0-15.7-12.8-28.6-28.6-28.6c-15.7,0-28.5,12.8-28.5,28.6c0,11.1,6.4,20.8,15.7,25.5
	C-195.8,66.1-195.8,66.3-196.2,66.3z M-183.9,66.3c-0.3,0-0.6-0.3-0.6-0.7V51.8c0-0.4,0.3-0.7,0.7-0.7h0.9c0.4,0,0.7,0.3,0.7,0.7
	v13.7c0,0.4-0.3,0.7-0.6,0.7c-0.2,0-0.4,0-0.6,0C-183.5,66.3-183.7,66.3-183.9,66.3z M-176.4,83.8c0,1-0.8,1.8-1.8,1.8h-10.3
	c-1,0-1.8-0.8-1.8-1.8c0-1,0.8-1.8,1.8-1.8h10.3C-177.2,82-176.4,82.8-176.4,83.8z M-173.5,79.3h-4.7h-10.3h-4.9
	c-1,0-1.8-0.8-1.8-1.8c0-1,0.8-1.8,1.8-1.8h19.8c1,0,1.8,0.8,1.8,1.8C-171.8,78.5-172.6,79.3-173.5,79.3z M-171.5,69
	c1,0,1.8,0.8,1.8,1.8c0,1-0.8,1.8-1.8,1.8h-24c-1,0-1.8-0.8-1.8-1.8c0-1,0.8-1.8,1.8-1.8H-171.5z M-157.5,40.5
	c0,12.7-9.2,23.3-21.3,25.4c-0.4,0.1-0.7-0.2-0.7-0.6V51.8c0-0.4,0.3-0.7,0.7-0.7h2.6c3.3,0,6-2.7,6-6c0-3.3-2.7-6-6-6
	c-3.3,0-6,2.7-6,6v2.6c0,0.4-0.3,0.7-0.7,0.7h-0.9c-0.4,0-0.7-0.3-0.7-0.7v-2.6c0-3.3-2.7-6-6-6c-3.3,0-6,2.7-6,6c0,3.3,2.7,6,6,6
	h2.6c0.4,0,0.7,0.3,0.7,0.7v13.5c0,0.4-0.3,0.6-0.7,0.6c-12.1-2.2-21.3-12.7-21.3-25.4c0-14.2,11.6-25.8,25.8-25.8
	C-169.1,14.6-157.5,26.2-157.5,40.5z M-179.5,47.7v-2.6c0-1.8,1.5-3.3,3.3-3.3c1.8,0,3.3,1.5,3.3,3.3c0,1.8-1.5,3.3-3.3,3.3h-2.6
	C-179.2,48.4-179.5,48.1-179.5,47.7z M-187.9,48.4h-2.6c-1.8,0-3.3-1.5-3.3-3.3c0-1.8,1.5-3.3,3.3-3.3c1.8,0,3.3,1.5,3.3,3.3v2.6
	C-187.2,48.1-187.5,48.4-187.9,48.4z"/>
<g>
	<path fill="#FFFFFF" d="M68.1,13.4H31.9c-2.9,0-5.3,2.4-5.3,5.3v62.6c0,2.9,2.4,5.3,5.3,5.3h36.1c2.9,0,5.3-2.4,5.3-5.3V18.7
		C73.3,15.8,71,13.4,68.1,13.4z M70.7,81.3c0,1.5-1.2,2.7-2.7,2.7H31.9c-1.5,0-2.7-1.2-2.7-2.7V18.7c0-1.5,1.2-2.7,2.7-2.7h36.1
		c1.5,0,2.7,1.2,2.7,2.7V81.3z"/>
	<path fill="#FFFFFF" d="M32,74h36c0.4,0,0.7-0.3,0.7-0.7V22.7c0-0.4-0.3-0.7-0.7-0.7H32c-0.4,0-0.6,0.3-0.6,0.7v50.7
		C31.4,73.7,31.7,74,32,74z M34.6,24.6h30.8c0.4,0,0.7,0.3,0.7,0.6v45.5c0,0.4-0.3,0.6-0.7,0.6H34.6c-0.4,0-0.7-0.3-0.7-0.6V25.3
		C34,24.9,34.3,24.6,34.6,24.6z"/>
	<path fill="#FFFFFF" d="M53.8,17.9H47c-0.4,0-0.7,0.3-0.7,0.7v1.3c0,0.4,0.3,0.7,0.7,0.7h6.9c0.4,0,0.7-0.3,0.7-0.7v-1.3
		C54.5,18.2,54.2,17.9,53.8,17.9z"/>
	<path fill="#FFFFFF" d="M49.6,75.5c-2.1,0-3.7,1.7-3.7,3.7s1.7,3.7,3.7,3.7c2.1,0,3.7-1.7,3.7-3.7S51.7,75.5,49.6,75.5z M49.6,80.3
		c-0.6,0-1.1-0.5-1.1-1.1c0-0.6,0.5-1.1,1.1-1.1s1.1,0.5,1.1,1.1C50.8,79.8,50.3,80.3,49.6,80.3z"/>
</g>
</svg>
