<?xml version="1.0" encoding="utf-8"?>
<!-- Generator: Adobe Illustrator 18.1.1, SVG Export Plug-In . SVG Version: 6.00 Build 0)  -->
<svg version="1.0" id="Layer_1" xmlns="http://www.w3.org/2000/svg" xmlns:xlink="http://www.w3.org/1999/xlink" x="0px" y="0px"
	 width="440px" height="140px" viewBox="-1059 2031 440 140" enable-background="new -1059 2031 440 140" xml:space="preserve">
<g>
	<g>
		<path fill="#222222" d="M-1000.4,2098.2l-12,14.3h-38.2V2080l-6.4-5.5l6.4-5.5v-33h37.1l12.4,14.4v15.3l-7.1,8.1l7.8,8.4
			C-1000.4,2082.3-1000.4,2098.2-1000.4,2098.2z M-1012.3,2061v-5.8l-6.6-8h-20.6v21.7h20.6L-1012.3,2061z M-1011.6,2093.4v-6.3
			l-6.2-6.8h-21.7v21.1h21.7L-1011.6,2093.4z"/>
		<path fill="#222222" d="M-939.7,2109.5h-42.8v-29.9l-5.9-5.2l5.9-5.1v-30.4h42.8v10.3h-32.4v20.1h25v10.3h-25v19.6h32.4V2109.5
			L-939.7,2109.5z"/>
		<path fill="#222222" d="M-878.8,2097l-12.8,11.3h-23.1l-12.8-11.3v-12.3h9.9v7.6l7.1,6.1h14.7l7.1-6.1v-7.6l-7.1-6h-17.4
			l-12.8-11.4v-15.6l12.8-11.3h21.6l12.8,11.3v11.3h-9.8v-7.1l-6.6-5.7h-14.2l-6.6,5.7v7.1l6.6,5.8h17.9l12.8,11.3L-878.8,2097
			L-878.8,2097z"/>
		<path fill="#222222" d="M-817.9,2067l-10.6,12.3h-22.2v27.7h-9.5v-27.8l-5.4-4.7l5.4-4.8v-28.1h31.7l10.6,12.2V2067z
			 M-827.4,2062.9v-5l-5.6-6.8h-17.6v18.7h17.6L-827.4,2062.9z"/>
		<path fill="#222222" d="M-747.1,2074.5l-5.7,4.9v17.5l-12.7,11.3h-24.1l-12.8-11.3v-17.5l-5.7-4.9l5.7-5v-17.9l12.8-11.3h24.1
			l12.7,11.3v17.9L-747.1,2074.5z M-762.7,2092.3v-36l-7.1-6.1h-15.6l-7.1,6.1v36l7.1,6h15.6L-762.7,2092.3z"/>
		<path fill="#222222" d="M-680.3,2109.5h-11.9l-23-31.1l-7.2,9v22.1h-10.3v-29.9l-5.9-5.2l5.9-5.1v-30.4h10.3v34l27.3-34h11.8
			l-25.6,31.8L-680.3,2109.5z"/>
		<path fill="#222222" d="M-622,2112.4h-46.2V2080l-6.4-5.6l6.4-5.5V2036h46.2v11.2h-35.1v21.7h27v11.2h-27v21.2h35.1V2112.4z"/>
	</g>
	<polygon fill="#222222" points="-721.4,2138.5 -731.3,2150.7 -706.8,2150.3 -712.7,2157.7 -683.7,2156.9 -703.1,2153.3 
		-697.2,2146 	"/>
	<polygon fill="#222222" points="-953.6,2138.5 -943.7,2150.7 -968.3,2150.3 -962.3,2157.7 -991.3,2156.9 -971.9,2153.3 
		-977.8,2146 	"/>
	<path fill="#222222" d="M-907.3,2158.8l-6.6,5.9h-18.4v-14.9l-2.9-2.6l2.9-2.5v-15.1h18.4l6.6,5.9V2158.8z M-912.5,2156.4v-18.6
		l-3.7-3.2h-11v24.9h11L-912.5,2156.4z"/>
	<path fill="#222222" d="M-888,2147.2l-2.9,2.6v14.9h-5.1v-14.9l-2.9-2.6l2.9-2.5v-15.2h5.1v15.2L-888,2147.2z"/>
	<path fill="#222222" d="M-852.8,2158.8l-6.6,5.9h-12.5l-6.6-5.9v-9.1l-2.9-2.5l2.9-2.6v-9.3l6.6-5.9h12.4l6.6,5.9l0.1,7.3h-5.1
		v-4.7l-3.6-3.4h-8.1l-3.7,3.2v18.6l3.7,3.2h8.1l3.6-3.4v-3.7h-6.8v-5.1h12L-852.8,2158.8L-852.8,2158.8z"/>
	<path fill="#222222" d="M-833.4,2147.2l-2.9,2.6v14.9h-5.2v-14.9l-2.9-2.6l2.9-2.5v-15.2h5.2v15.2L-833.4,2147.2z"/>
	<path fill="#222222" d="M-801.1,2134.6h-10.2v10l2.9,2.5l-2.9,2.5v14.9h-5.1v-14.9l-2.9-2.5l2.9-2.5v-10h-10.4v-5.1h25.6
		L-801.1,2134.6L-801.1,2134.6z"/>
	<path fill="#222222" d="M-766,2164.7h-5.4l-3.3-8.8h-14.4l-3.3,8.8h-5.4l5.6-14.9l-2.4-2.6l4.3-2.2l5.8-15.5h5.4L-766,2164.7z
		 M-776.6,2150.7l-5.3-14.4l-5.3,14.4H-776.6z"/>
	<path fill="#222222" d="M-734.8,2164.7h-21.3v-14.9l-2.9-2.5l2.9-2.6v-15.1h5.1v30h16.1v5.1H-734.8z"/>
</g>
</svg>
