<?xml version="1.0" encoding="utf-8"?>
<!-- Generator: Adobe Illustrator 18.1.1, SVG Export Plug-In . SVG Version: 6.00 Build 0)  -->
<svg version="1.0" id="Layer_1" xmlns="http://www.w3.org/2000/svg" xmlns:xlink="http://www.w3.org/1999/xlink" x="0px" y="0px"
	 width="2560px" height="4200px" viewBox="0 0 2560 4200" enable-background="new 0 0 2560 4200" xml:space="preserve">
<path fill="#222222" d="M1292.8,1629c-53.8,53.8-107.5,107.5-161.3,161.3c-233,233-471,473.6-660.5,752.6
	c-2.6,5.1-15.4,20.5-28.2,41c-23,33.3-56.3,76.8-81.9,115.2c-41,56.3-58.9,84.5-51.2,110.1c2.6,5.1,7.7,15.4,10.2,20.5
	c17.9,33.3,53.8,112.6,53.8,112.6l2.6,5.1c2.6,2.6,7.7,10.2,15.4,17.9c17.9,17.9,48.6,38.4,89.6,43.5c46.1,2.6,89.6-15.4,130.6-58.9
	l5.1-7.7c30.7-46.1,58.9-92.2,87-135.7c61.4-99.8,128-204.8,202.2-297c41-51.2,89.6-97.3,138.2-145.9c17.9-17.9,35.8-35.8,53.8-53.8
	c143.4-143.4,289.3-291.8,430.1-435.2l33.3-30.7c5.1-5.1,12.8-5.1,15.4,0l46.1,61.4c5.1,5.1,10.2,15.4,10.2,20.5l87,238.1
	c2.6,5.1,10.2,10.2,15.4,10.2h20.5c128-5.1,250.9-61.4,345.6-158.7c89.6-92.2,143.4-212.5,151-337.9v-20.5c0-7.7-5.1-12.8-10.2-15.4
	l-192-74.2c-5.1-2.6-15.4-7.7-20.5-12.8l-471-355.8c-5.1-5.1-12.8-2.6-17.9,2.6l-243.2,248.3c-5.1,5.1-5.1,12.8,0,17.9l58.9,79.4
	c5.1,5.1,2.6,12.8,0,17.9c-12.8,12.8-23,25.6-35.8,35.8L1292.8,1629z M1282.6,1982.2l-99.8-97.3c-5.1-5.1-5.1-12.8,0-17.9
	s7.7-7.7,12.8-12.8c10.2-10.2,20.5-20.5,30.7-30.7c5.1-5.1,12.8-5.1,17.9,0l99.8,97.3c5.1,5.1,5.1,12.8,0,17.9
	c-12.8,15.4-28.2,28.2-41,43.5C1295.4,1987.4,1287.7,1987.4,1282.6,1982.2z M391.7,2768.2C391.7,2773.3,391.7,2773.3,391.7,2768.2
	C389.1,2765.6,389.1,2765.6,391.7,2768.2z M537.6,2898.7c-12.8,10.2-30.7,20.5-46.1,20.5c-12.8,0-23-7.7-30.7-12.8
	c-5.1-5.1-10.2-12.8-12.8-20.5c-17.9-38.4-30.7-64-41-81.9c-2.6-5.1-2.6-15.4,2.6-20.5c28.2-41,81.9-115.2,105-145.9
	c15.4-20.5,28.2-38.4,30.7-43.5c158.7-235.5,358.4-445.4,558.1-645.1c5.1-5.1,12.8-5.1,17.9,0l99.8,99.8c5.1,5.1,5.1,12.8,0,17.9
	c-61.4,61.4-120.3,122.9-181.8,184.3c-17.9,17.9-35.8,35.8-53.8,53.8c-48.6,48.6-99.8,97.3-145.9,153.6
	c-79.4,97.3-145.9,202.2-209.9,307.2c-25.6,41-51.2,81.9-76.8,120.3C547.8,2885.9,542.7,2893.6,537.6,2898.7z M1420.8,1856.8
	c-5.1,5.1-12.8,5.1-17.9,0l-97.3-97.3c-5.1-5.1-5.1-12.8,0-17.9c17.9-17.9,33.3-33.3,51.2-51.2l25.6-28.2
	c7.7-10.2,17.9-17.9,25.6-25.6c5.1-5.1,12.8-5.1,15.4,0l84.5,112.6c5.1,5.1,2.6,12.8-2.6,17.9l-41,41
	C1451.5,1826.1,1436.2,1841.4,1420.8,1856.8z M2160.6,1718.6c-15.4,87-56.3,169-120.3,235.5c-66.6,69.1-151,112.6-240.6,125.4
	c-7.7,0-12.8-2.6-15.4-10.2l-23-66.6c-2.6-5.1,2.6-10.2,7.7-12.8c76.8-5.1,153.6-41,212.5-99.8c56.3-56.3,89.6-133.1,94.7-209.9
	c0-7.7,5.1-10.2,12.8-7.7l66.6,25.6C2158.1,1705.8,2163.2,1710.9,2160.6,1718.6z"/>
<path fill="#222222" d="M1497.6,13138.7l-15.4,15.4c-28.2,30.7-678.4,732.2-542.7,1305.6c53.8,227.8,227.8,404.5,514.6,519.7
	c10.2,5.1,17.9,15.4,17.9,25.6v330.2c0,10.2,7.7,20.5,20.5,20.5h38.4c10.2,0,20.5-7.7,20.5-20.5V15005c0-10.2,7.7-23,17.9-25.6
	c286.7-115.2,460.8-289.3,514.6-519.7c135.7-573.4-514.6-1274.9-542.7-1305.6l-15.4-15.4C1515.5,13131,1505.3,13131,1497.6,13138.7z
	 M1566.7,14894.9c-10.2,5.1-17.9,0-17.9-12.8v-233c0-10.2,5.1-25.6,12.8-33.3l212.5-243.2c7.7-7.7,5.1-20.5-2.6-28.2l-28.2-25.6
	c-7.7-7.7-20.5-5.1-28.2,2.6l-153.6,174.1c-7.7,7.7-12.8,5.1-12.8-5.1v-245.8c0-10.2,5.1-25.6,12.8-33.3l212.5-243.2
	c7.7-7.7,5.1-20.5-2.6-28.2l-28.2-25.6c-7.7-7.7-20.5-5.1-28.2,2.6l-153.6,174.1c-7.7,7.7-12.8,5.1-12.8-5.1v-297
	c0-10.2-7.7-20.5-20.5-20.5h-38.4c-10.2,0-20.5,7.7-20.5,20.5v297c0,10.2-5.1,12.8-12.8,5.1L1303,13917c-7.7-7.7-20.5-7.7-28.2-2.6
	l-28.2,25.6c-7.7,7.7-7.7,20.5-2.6,28.2l212.5,243.2c7.7,7.7,12.8,23,12.8,33.3v245.8c0,10.2-5.1,12.8-12.8,5.1l-153.6-174.1
	c-7.7-7.7-20.5-7.7-28.2-2.6l-28.2,25.6c-7.7,7.7-7.7,20.5-2.6,28.2l212.5,243.2c7.7,7.7,12.8,23,12.8,33.3v233
	c0,10.2-7.7,15.4-17.9,12.8c-245.8-105-391.7-256-437.8-453.1c-107.5-453.1,340.5-1021.4,483.8-1187.8c7.7-7.7,17.9-7.7,25.6,0
	c140.8,166.4,591.4,734.7,483.8,1187.8C1958.4,14636.3,1812.5,14789.9,1566.7,14894.9z"/>
<path fill="#222222" d="M1180.2-10807.5c-53.8,10.2-94.7,56.3-94.7,112.6c0,43.5,23,79.4,56.3,99.8c7.7,5.1,10.2,15.4,7.7,23
	c-7.7,15.4-10.2,30.7-10.2,48.6c0,64,51.2,115.2,115.2,115.2c0,0,5.1,0,10.2,0c5.1,0,7.7,7.7,5.1,17.9s-2.6,17.9-2.6,28.2
	c0,64,51.2,115.2,115.2,115.2h263.7c64,0,115.2-51.2,115.2-115.2c0-10.2,0-20.5-2.6-28.2c-2.6-10.2-2.6-17.9,2.6-17.9h7.7
	c64,0,115.2-51.2,115.2-115.2c0-17.9-5.1-35.8-10.2-48.6c-5.1-7.7-2.6-17.9,7.7-23c33.3-20.5,56.3-56.3,56.3-99.8
	c0-56.3-38.4-102.4-89.6-112.6c-10.2-2.6-10.2-5.1-2.6-10.2c238.1-120.3,404.5-368.6,404.5-652.8c0-401.9-327.7-732.2-732.2-732.2
	c-401.9,0-729.6,327.7-729.6,732.2c0,284.2,163.8,532.5,401.9,652.8C1190.4-10812.6,1190.4-10810.1,1180.2-10807.5z M1495-10810.1
	c-7.7,0-15.4-7.7-15.4-17.9v-350.7c0-10.2,7.7-17.9,17.9-17.9h23c10.2,0,17.9,7.7,17.9,17.9v350.7c0,10.2-7.7,17.9-15.4,17.9
	c-5.1,0-10.2,0-15.4,0C1505.3-10810.1,1500.2-10810.1,1495-10810.1z M1687-10362.1c0,25.6-20.5,46.1-46.1,46.1h-261.1
	c-25.6,0-46.1-20.5-46.1-46.1c0-25.6,20.5-46.1,46.1-46.1h263.7C1666.6-10405.6,1687-10385.1,1687-10362.1z M1761.3-10477.3H1641
	h-261.1h-125.4c-25.6,0-46.1-20.5-46.1-46.1c0-25.6,20.5-46.1,46.1-46.1h506.9c25.6,0,46.1,20.5,46.1,46.1
	C1807.4-10497.8,1786.9-10477.3,1761.3-10477.3z M1815-10738.4c25.6,0,46.1,20.5,46.1,46.1c0,25.6-20.5,46.1-46.1,46.1h-614.4
	c-25.6,0-46.1-20.5-46.1-46.1c0-25.6,20.5-46.1,46.1-46.1H1815z M2170.9-11470.6c0,325.1-235.5,596.5-545.3,650.2
	c-10.2,2.6-17.9-5.1-17.9-15.4v-345.6c0-10.2,7.7-17.9,17.9-17.9h66.6c84.5,0,153.6-69.1,153.6-153.6s-69.1-153.6-153.6-153.6
	c-84.5,0-153.6,69.1-153.6,153.6v66.6c0,10.2-7.7,17.9-17.9,17.9h-23c-10.2,0-17.9-7.7-17.9-17.9v-66.6
	c0-84.5-69.1-153.6-153.6-153.6s-153.6,69.1-153.6,153.6s69.1,153.6,153.6,153.6h66.6c10.2,0,17.9,7.7,17.9,17.9v345.6
	c0,10.2-7.7,15.4-17.9,15.4c-309.8-56.3-545.3-325.1-545.3-650.2c0-363.5,297-660.5,660.5-660.5
	C1873.9-12131,2170.9-11834.1,2170.9-11470.6z M1610.2-11283.7v-66.6c0-46.1,38.4-84.5,84.5-84.5s84.5,38.4,84.5,84.5
	c0,46.1-38.4,84.5-84.5,84.5h-66.6C1617.9-11265.8,1610.2-11273.4,1610.2-11283.7z M1392.6-11265.8h-66.6
	c-46.1,0-84.5-38.4-84.5-84.5c0-46.1,38.4-84.5,84.5-84.5s84.5,38.4,84.5,84.5v66.6C1410.6-11273.4,1402.9-11265.8,1392.6-11265.8z"
	/>
<g>
	<path fill="#222222" d="M1973.8,26806.6H1047c-74.2,0-135.7,61.4-135.7,135.7v1602.6c0,74.2,61.4,135.7,135.7,135.7h924.2
		c74.2,0,135.7-61.4,135.7-135.7v-1602.6C2106.9,26865.4,2048,26806.6,1973.8,26806.6z M2040.3,28542.2c0,38.4-30.7,69.1-69.1,69.1
		H1047c-38.4,0-69.1-30.7-69.1-69.1v-1602.6c0-38.4,30.7-69.1,69.1-69.1h924.2c38.4,0,69.1,30.7,69.1,69.1V28542.2z"/>
	<path fill="#222222" d="M1049.6,28355.4h921.6c10.2,0,17.9-7.7,17.9-17.9v-1297.9c0-10.2-7.7-17.9-17.9-17.9h-921.6
		c-10.2,0-15.4,7.7-15.4,17.9v1297.9C1034.2,28347.7,1041.9,28355.4,1049.6,28355.4z M1116.2,27090.7h788.5
		c10.2,0,17.9,7.7,17.9,15.4v1164.8c0,10.2-7.7,15.4-17.9,15.4h-788.5c-10.2,0-17.9-7.7-17.9-15.4v-1164.8
		C1100.8,27098.4,1108.5,27090.7,1116.2,27090.7z"/>
	<path fill="#222222" d="M1607.7,26919.2h-174.1c-10.2,0-17.9,7.7-17.9,17.9v33.3c0,10.2,7.7,17.9,17.9,17.9h176.6
		c10.2,0,17.9-7.7,17.9-17.9v-33.3C1625.6,26926.9,1617.9,26919.2,1607.7,26919.2z"/>
	<path fill="#222222" d="M1500.2,28393.8c-53.8,0-94.7,43.5-94.7,94.7s43.5,94.7,94.7,94.7c53.8,0,94.7-43.5,94.7-94.7
		S1553.9,28393.8,1500.2,28393.8z M1500.2,28519.2c-15.4,0-28.2-12.8-28.2-28.2s12.8-28.2,28.2-28.2c15.4,0,28.2,12.8,28.2,28.2
		C1530.9,28503.8,1518.1,28519.2,1500.2,28519.2z"/>
</g>
</svg>
