<svg version="1" xmlns="http://www.w3.org/2000/svg" width="44" height="30" viewBox="-1257 2086 44 30"><g fill="#231F20"><path d="M-1215.1 2090.1l-.1.1-14.4 10.7 14.5 10.8.2.2c.1-.3.2-.7.2-1v-20c0-.4-.1-.7-.2-1-.1.1-.2.1-.2.2M-1234.8 2103.4c-1.3 0-2.5-.4-3.5-1.2l-14.5 10.9c.6.5 1.3.9 2.1.9h32c.8 0 1.5-.3 2.1-.9l-14.5-10.9c-1.2.7-2.4 1.2-3.7 1.2M-1254.4 2090.1l-.2-.2c-.1.3-.2.7-.2 1v20c0 .4.1.7.2 1l.2-.2.1-.1 14.4-10.7-14.5-10.8zM-1234.8 2101.4c1.1 0 2.1-.4 2.8-1.1l.1-.1 15.2-11.3c-.6-.5-1.3-.9-2.1-.9h-32c-.8 0-1.5.3-2.1.9l15.3 11.4c.7.7 1.7 1.1 2.8 1.1"/><path d="M-1250.8 2087.9h32c.8 0 1.5.3 2.1.9l-15.2 11.3-.1.1c-.7.7-1.8 1.1-2.8 1.1-1.1 0-2.1-.4-2.8-1.1l-15.3-11.4c.6-.5 1.3-.9 2.1-.9M-1254.4 2111.8l-.2.2c-.1-.3-.2-.7-.2-1v-20c0-.4.1-.7.2-1l.2.2 14.5 10.8-14.4 10.7-.1.1zM-1218.8 2113.9h-32c-.8 0-1.5-.3-2.1-.9l14.5-10.9c1 .7 2.2 1.2 3.5 1.2 1.3 0 2.5-.4 3.5-1.2l14.5 10.9c-.4.6-1.1.9-1.9.9M-1214.8 2110.9c0 .4-.1.7-.2 1l-.2-.2-14.5-10.8 14.4-10.7.1-.1.2-.2c.1.3.2.7.2 1v20z"/></g></svg>