<?xml version="1.0" encoding="utf-8"?>
<!-- Generator: Adobe Illustrator 18.1.1, SVG Export Plug-In . SVG Version: 6.00 Build 0)  -->
<svg version="1.0" id="Layer_1" xmlns="http://www.w3.org/2000/svg" xmlns:xlink="http://www.w3.org/1999/xlink" x="0px" y="0px"
	 width="44px" height="30px" viewBox="-1257 2086 44 30" enable-background="new -1257 2086 44 30" xml:space="preserve">
<g>
	<path fill="#231F20" d="M-1215.1,2090.1l-0.1,0.1l-14.4,10.7l14.5,10.8c0.1,0.1,0.1,0.1,0.2,0.2c0.1-0.3,0.2-0.7,0.2-1v-20
		c0-0.4-0.1-0.7-0.2-1C-1215,2090-1215.1,2090-1215.1,2090.1"/>
	<path fill="#231F20" d="M-1234.8,2103.4c-1.3,0-2.5-0.4-3.5-1.2l-14.5,10.9c0.6,0.5,1.3,0.9,2.1,0.9h32c0.8,0,1.5-0.3,2.1-0.9
		l-14.5-10.9C-1232.3,2102.9-1233.5,2103.4-1234.8,2103.4"/>
	<path fill="#231F20" d="M-1254.4,2090.1c-0.1-0.1-0.1-0.1-0.2-0.2c-0.1,0.3-0.2,0.7-0.2,1v20c0,0.4,0.1,0.7,0.2,1
		c0.1-0.1,0.1-0.1,0.2-0.2l0.1-0.1l14.4-10.7L-1254.4,2090.1z"/>
	<path fill="#231F20" d="M-1234.8,2101.4c1.1,0,2.1-0.4,2.8-1.1l0.1-0.1l15.2-11.3c-0.6-0.5-1.3-0.9-2.1-0.9h-32
		c-0.8,0-1.5,0.3-2.1,0.9l15.3,11.4C-1236.9,2101-1235.9,2101.4-1234.8,2101.4"/>
	<path fill="#231F20" d="M-1250.8,2087.9h32c0.8,0,1.5,0.3,2.1,0.9l-15.2,11.3l-0.1,0.1c-0.7,0.7-1.8,1.1-2.8,1.1
		c-1.1,0-2.1-0.4-2.8-1.1l-15.3-11.4C-1252.3,2088.3-1251.6,2087.9-1250.8,2087.9"/>
	<path fill="#231F20" d="M-1254.4,2111.8c-0.1,0.1-0.1,0.1-0.2,0.2c-0.1-0.3-0.2-0.7-0.2-1v-20c0-0.4,0.1-0.7,0.2-1
		c0.1,0.1,0.1,0.1,0.2,0.2l14.5,10.8l-14.4,10.7L-1254.4,2111.8z"/>
	<path fill="#231F20" d="M-1218.8,2113.9h-32c-0.8,0-1.5-0.3-2.1-0.9l14.5-10.9c1,0.7,2.2,1.2,3.5,1.2c1.3,0,2.5-0.4,3.5-1.2
		l14.5,10.9C-1217.3,2113.6-1218,2113.9-1218.8,2113.9"/>
	<path fill="#231F20" d="M-1214.8,2110.9c0,0.4-0.1,0.7-0.2,1c-0.1-0.1-0.1-0.1-0.2-0.2l-14.5-10.8l14.4-10.7l0.1-0.1
		c0.1-0.1,0.1-0.1,0.2-0.2c0.1,0.3,0.2,0.7,0.2,1V2110.9z"/>
</g>
</svg>
